<svg width="26" height="27" viewBox="0 0 26 27" fill="none" xmlns="http://www.w3.org/2000/svg">
<path d="M19 0.315918H7C5.14409 0.317903 3.36477 1.05604 2.05245 2.36836C0.740121 3.68069 0.00198528 5.46001 0 7.31592V19.3159C0.00198528 21.1718 0.740121 22.9511 2.05245 24.2635C3.36477 25.5758 5.14409 26.3139 7 26.3159H19C20.8559 26.3139 22.6352 25.5758 23.9476 24.2635C25.2599 22.9511 25.998 21.1718 26 19.3159V7.31592C25.998 5.46001 25.2599 3.68069 23.9476 2.36836C22.6352 1.05604 20.8559 0.317903 19 0.315918ZM13 19.3159C11.8133 19.3159 10.6533 18.964 9.66658 18.3047C8.67988 17.6454 7.91085 16.7084 7.45672 15.612C7.0026 14.5157 6.88378 13.3093 7.11529 12.1454C7.3468 10.9815 7.91824 9.91239 8.75736 9.07328C9.59647 8.23416 10.6656 7.66272 11.8295 7.43121C12.9933 7.1997 14.1997 7.31852 15.2961 7.77264C16.3925 8.22677 17.3295 8.9958 17.9888 9.9825C18.6481 10.9692 19 12.1292 19 13.3159C18.9983 14.9067 18.3657 16.4319 17.2408 17.5567C16.116 18.6816 14.5908 19.3143 13 19.3159ZM20.5 7.31592C20.2033 7.31592 19.9133 7.22794 19.6666 7.06312C19.42 6.8983 19.2277 6.66403 19.1142 6.38994C19.0007 6.11585 18.9709 5.81425 19.0288 5.52328C19.0867 5.23231 19.2296 4.96504 19.4393 4.75526C19.6491 4.54548 19.9164 4.40262 20.2074 4.34474C20.4983 4.28686 20.7999 4.31657 21.074 4.4301C21.3481 4.54363 21.5824 4.73589 21.7472 4.98256C21.912 5.22924 22 5.51925 22 5.81592C22 6.21374 21.842 6.59527 21.5607 6.87658C21.2794 7.15788 20.8978 7.31592 20.5 7.31592ZM17 13.3159C17 14.107 16.7654 14.8804 16.3259 15.5382C15.8864 16.196 15.2616 16.7087 14.5307 17.0114C13.7998 17.3142 12.9956 17.3934 12.2196 17.2391C11.4437 17.0847 10.731 16.7038 10.1716 16.1443C9.61216 15.5849 9.2312 14.8722 9.07686 14.0963C8.92252 13.3204 9.00173 12.5161 9.30448 11.7852C9.60723 11.0543 10.1199 10.4296 10.7777 9.99004C11.4355 9.55051 12.2089 9.31592 13 9.31592C14.0609 9.31592 15.0783 9.73735 15.8284 10.4875C16.5786 11.2376 17 12.2551 17 13.3159Z" fill="#737373"/>
</svg>
