<svg width="26" height="27" viewBox="0 0 26 27" fill="none" xmlns="http://www.w3.org/2000/svg">
<path d="M24 0.315918H2C1.46957 0.315918 0.960859 0.526632 0.585786 0.901704C0.210714 1.27678 0 1.78548 0 2.31592V24.3159C0 24.8464 0.210714 25.3551 0.585786 25.7301C0.960859 26.1052 1.46957 26.3159 2 26.3159H24C24.5304 26.3159 25.0391 26.1052 25.4142 25.7301C25.7893 25.3551 26 24.8464 26 24.3159V2.31592C26 1.78548 25.7893 1.27678 25.4142 0.901704C25.0391 0.526632 24.5304 0.315918 24 0.315918ZM9 19.3159C9 19.5811 8.89464 19.8355 8.70711 20.023C8.51957 20.2106 8.26522 20.3159 8 20.3159C7.73478 20.3159 7.48043 20.2106 7.29289 20.023C7.10536 19.8355 7 19.5811 7 19.3159V11.3159C7 11.0507 7.10536 10.7963 7.29289 10.6088C7.48043 10.4213 7.73478 10.3159 8 10.3159C8.26522 10.3159 8.51957 10.4213 8.70711 10.6088C8.89464 10.7963 9 11.0507 9 11.3159V19.3159ZM8 9.31592C7.70333 9.31592 7.41332 9.22794 7.16665 9.06312C6.91997 8.8983 6.72771 8.66403 6.61418 8.38994C6.50065 8.11585 6.47094 7.81425 6.52882 7.52328C6.5867 7.23231 6.72956 6.96504 6.93934 6.75526C7.14912 6.54548 7.41639 6.40262 7.70736 6.34474C7.99834 6.28686 8.29994 6.31657 8.57403 6.4301C8.84811 6.54363 9.08238 6.73589 9.2472 6.98256C9.41203 7.22924 9.5 7.51925 9.5 7.81592C9.5 8.21374 9.34196 8.59527 9.06066 8.87658C8.77936 9.15788 8.39782 9.31592 8 9.31592ZM20 19.3159C20 19.5811 19.8946 19.8355 19.7071 20.023C19.5196 20.2106 19.2652 20.3159 19 20.3159C18.7348 20.3159 18.4804 20.2106 18.2929 20.023C18.1054 19.8355 18 19.5811 18 19.3159V14.8159C18 14.1529 17.7366 13.517 17.2678 13.0482C16.7989 12.5793 16.163 12.3159 15.5 12.3159C14.837 12.3159 14.2011 12.5793 13.7322 13.0482C13.2634 13.517 13 14.1529 13 14.8159V19.3159C13 19.5811 12.8946 19.8355 12.7071 20.023C12.5196 20.2106 12.2652 20.3159 12 20.3159C11.7348 20.3159 11.4804 20.2106 11.2929 20.023C11.1054 19.8355 11 19.5811 11 19.3159V11.3159C11.0012 11.071 11.0923 10.835 11.256 10.6528C11.4197 10.4705 11.6446 10.3547 11.888 10.3273C12.1314 10.2998 12.3764 10.3627 12.5765 10.5039C12.7767 10.6451 12.918 10.8549 12.9738 11.0934C13.6502 10.6345 14.4389 10.3685 15.2552 10.3241C16.0714 10.2796 16.8844 10.4583 17.6067 10.841C18.329 11.2237 18.9335 11.7959 19.3551 12.4962C19.7768 13.1965 19.9997 13.9985 20 14.8159V19.3159Z" fill="#737373"/>
</svg>
