<svg width="22" height="25" viewBox="0 0 22 25" fill="none" xmlns="http://www.w3.org/2000/svg">
<path d="M21.875 23.7972C21.7889 23.954 21.6623 24.0849 21.5084 24.1761C21.3545 24.2674 21.1789 24.3156 21 24.3159H15C14.8317 24.3159 14.6661 24.2733 14.5186 24.1923C14.3711 24.1112 14.2465 23.9942 14.1562 23.8522L9.095 15.8984L1.74 23.9884C1.5607 24.181 1.31272 24.2952 1.04981 24.3062C0.786896 24.3172 0.530251 24.2241 0.335513 24.0471C0.140776 23.8701 0.0236417 23.6235 0.00950574 23.3608C-0.00463022 23.098 0.0853717 22.8403 0.259998 22.6434L7.98125 14.1434L0.156248 1.85342C0.0598751 1.70222 0.00592576 1.5279 4.91067e-05 1.34869C-0.00582755 1.16949 0.0365846 0.992006 0.122845 0.83482C0.209105 0.677635 0.33604 0.546533 0.490357 0.455243C0.644675 0.363952 0.8207 0.315831 0.999998 0.315918H7C7.1683 0.31597 7.33387 0.358499 7.48136 0.439565C7.62885 0.520631 7.7535 0.637611 7.84375 0.779668L12.905 8.73342L20.26 0.643418C20.4393 0.450816 20.6873 0.336647 20.9502 0.325663C21.2131 0.314678 21.4697 0.407764 21.6645 0.584738C21.8592 0.761712 21.9764 1.00831 21.9905 1.27107C22.0046 1.53383 21.9146 1.79157 21.74 1.98842L14.0187 10.4822L21.8437 22.7797C21.9396 22.9309 21.993 23.1052 21.9985 23.2841C22.004 23.4631 21.9614 23.6403 21.875 23.7972Z" fill="#737373"/>
</svg>
