<svg width="1290" height="600" viewBox="0 0 1290 600" fill="none" xmlns="http://www.w3.org/2000/svg">
<path d="M1355.01 295.472C1345.1 195.293 1329.58 98.4651 1294.98 29.2944C1260.38 -39.6077 1204.25 -77.9309 1137.22 -51.2532C1057.15 -19.3559 970.021 99.3992 894.888 102.256C846.266 104.068 813.162 56.6276 779.474 16.2763C745.694 -24.1626 704.552 -59.2408 652.108 -31.5483C558.082 18.1286 476.199 242.094 383.591 276.512C322.505 299.115 286.609 227.914 240.623 193.482C182.412 150.011 99.7393 167.816 21.5379 240.781C-56.6636 313.747 -128.801 440.494 -169.734 576.48" stroke="#0A0A0A" stroke-miterlimit="10"/>
<path d="M1358.01 275.131C1347.84 176.002 1331.62 80.5928 1296.68 12.9312C1275.66 -27.9869 1246.83 -57.8887 1212.7 -69.3939C1190.42 -76.9554 1165.78 -76.4899 1139.61 -66.4037C1060.13 -35.4958 973.62 79.4289 898.789 85.2358C872.198 87.2683 850.028 75.8519 829.72 58.3012C812.523 43.4579 796.684 24.3731 780.774 6.27549C758.515 -19.2049 733.401 -43.4563 704.65 -50.872C688.738 -54.9932 671.751 -54.073 653.56 -45.5999C617.798 -29.1157 583.858 12.055 550.198 58.5053C501.631 125.271 453.276 203.051 401.782 234.314C396.27 237.753 390.742 240.386 385.118 242.663C323.682 266.803 287.195 202.939 241.938 174.483C197.506 146.814 139.366 155.112 78.8746 195.716C61.3761 207.489 43.7507 222.041 26.1715 239.012C-5.44971 269.738 -36.3775 308.511 -64.8712 352.247C-107.355 417.173 -144.416 492.817 -170.288 570.181" stroke="#0A0A0A" stroke-miterlimit="10"/>
<path d="M1361.19 254.674C1350.59 156.691 1333.76 62.7906 1298.56 -3.80999C1277.37 -44.1091 1248.64 -73.3948 1214.67 -84.7283C1192.48 -92.2045 1168.1 -92.0137 1142.01 -82.1057C1063.2 -52.3694 977.407 59.0775 902.874 67.5675C876.111 70.5004 853.528 61.3302 832.705 45.399C814.988 31.9071 798.62 13.6351 782.441 -4.19315C759.646 -29.1315 734.341 -53.5652 705.825 -62.3328C690.075 -67.0863 673.425 -67.1594 655.294 -59.94C620.102 -46.0629 586.613 -8.92321 553.233 33.86C505.088 95.258 456.086 168.236 403.863 199.883C398.258 203.236 392.734 206.138 387.108 208.416C325.317 233.826 288.423 177.48 243.723 155.365C200.022 133.676 143.581 147.045 83.9472 191.137C66.642 203.894 49.0265 219.257 31.4573 237.039C-0.239547 269.03 -31.6145 308.452 -60.8401 352.038C-104.33 416.827 -142.976 490.199 -170.282 563.584" stroke="#0A0A0A" stroke-miterlimit="10"/>
<path d="M1364.28 234.426C1353.43 137.497 1335.91 45.022 1300.36 -20.3337C1278.99 -59.7435 1250.45 -88.5931 1216.66 -99.7544C1194.64 -107.058 1170.43 -106.96 1144.51 -97.4121C1066.2 -68.7554 981.028 39.121 906.882 50.114C879.955 54.2166 856.953 47.0254 835.61 32.4461C817.374 20.3068 800.655 2.7549 783.942 -14.5283C760.611 -38.9235 735.024 -63.6264 706.836 -73.659C691.158 -79.1327 674.666 -80.1058 656.953 -74.3283C622.239 -63.1478 589.474 -30.0487 556.196 9.15767C508.297 65.2773 458.822 133.086 405.877 165.385C400.27 168.738 394.658 171.823 388.943 174.282C326.713 201.143 289.321 152.233 245.446 136.189C202.385 120.396 147.829 139.015 88.7851 186.601C71.6739 200.343 54.0741 216.786 36.5103 235.11C4.65203 268.547 -27.083 308.436 -56.9482 351.958C-101.535 416.519 -141.674 487.703 -170.328 556.926" stroke="#0A0A0A" stroke-miterlimit="10"/>
<path d="M1367.38 214.204C1356.09 118.428 1337.97 27.4687 1302.26 -36.7333C1280.81 -75.4334 1252.26 -103.752 1218.65 -114.741C1196.72 -121.958 1172.68 -121.954 1147.1 -112.86C1069.29 -85.2843 984.846 19.1038 911.003 32.782C883.906 37.7859 860.578 32.6626 838.634 19.8866C819.966 8.91974 802.632 -7.63637 785.471 -24.555C761.605 -48.406 735.914 -73.4713 707.786 -84.763C692.359 -91.0507 675.939 -92.7431 658.552 -88.4959C624.318 -80.0137 592.105 -50.5956 559.19 -15.5129C511.717 35.2303 461.597 98.2274 407.834 130.821C402.139 134.356 396.434 137.354 390.81 139.902C328.32 168.119 290.339 126.563 247.111 116.688C204.784 106.881 152.024 130.665 93.6646 181.833C76.6614 196.741 59.2511 213.901 41.6067 232.948C9.67455 267.65 -22.5929 308.367 -53.1023 351.555C-98.7851 415.887 -140.325 484.967 -170.505 550.115" stroke="#0A0A0A" stroke-miterlimit="10"/>
<path d="M1370.57 193.812C1358.94 99.0106 1340.21 9.5703 1304.15 -53.382C1282.62 -91.371 1254.09 -118.889 1220.64 -129.973C1198.8 -137.105 1174.94 -137.195 1149.62 -128.374C1072.4 -101.792 988.498 -1.07201 915.139 15.1986C887.787 21.2854 864.132 18.2309 841.669 6.80902C822.483 -2.8033 804.62 -18.5438 787.191 -35.1909C762.881 -58.4093 736.818 -83.8303 709.02 -96.3876C693.666 -103.396 677.583 -106.083 660.529 -103.098C626.776 -97.3152 595.111 -71.8495 562.478 -40.4429C515.346 5.10135 464.577 63.0141 410.181 96.0767C404.393 99.5253 398.692 102.793 392.98 105.522C330.14 135.008 291.576 101.08 249.175 97.2818C207.406 93.5591 156.622 122.415 98.9433 176.896C82.1354 192.79 64.7418 211.028 47.1037 230.618C15.0986 266.584 -17.614 307.947 -48.6754 350.887C-95.2752 414.894 -138.486 481.874 -170.1 543.032" stroke="#0A0A0A" stroke-miterlimit="10"/>
<path d="M1373.67 173.628C1361.79 79.8871 1342.28 -7.94042 1305.96 -69.8244C1284.35 -107.102 1255.82 -134.088 1222.64 -144.912C1200.98 -151.87 1177.29 -152.054 1152.13 -143.593C1075.42 -118.094 992.242 -20.8673 919.274 -2.09067C891.666 5.07943 867.686 4.09467 844.703 -5.97255C825.084 -14.4112 806.698 -29.0671 788.821 -45.3491C763.976 -68.0224 737.723 -93.6241 710.076 -107.354C694.887 -114.995 678.964 -118.583 662.236 -117.13C629.057 -113.961 597.848 -92.5367 565.497 -64.8077C518.7 -24.7331 467.378 28.4501 412.257 61.8948C406.467 65.3442 400.673 68.5246 394.873 71.436C331.596 102.373 292.536 75.8939 250.783 78.2696C209.749 80.5393 160.586 114.657 103.771 172.629C87.158 189.508 69.7758 208.558 52.1491 228.958C19.984 266.371 -13.0877 308.2 -44.8799 350.986C-92.576 414.762 -137.28 479.548 -170.329 536.715" stroke="#0A0A0A" stroke-miterlimit="10"/>
<path d="M1376.77 153.155C1364.46 60.5694 1344.34 -25.739 1307.86 -86.4669C1286.08 -122.852 1257.74 -149.4 1224.64 -160.139C1203.07 -167.01 1179.55 -167.288 1154.74 -159.282C1078.71 -134.959 995.986 -40.9515 923.502 -19.5799C895.637 -11.3259 871.417 -10.4215 847.832 -18.6831C827.694 -25.7662 808.865 -39.7874 790.633 -55.6165C765.252 -77.7446 738.804 -103.796 711.401 -118.611C696.284 -126.974 680.607 -131.645 664.125 -131.274C631.427 -130.807 600.943 -113.432 568.697 -89.2881C522.24 -54.4164 470.36 -6.23329 414.42 27.5062C408.543 31.1377 402.747 34.3188 396.946 37.2309C333.318 69.4388 293.673 50.5927 252.748 59.0512C212.271 67.4098 165.085 106.605 108.864 168.075C92.3592 186.122 75.1668 205.889 57.373 227.195C25.1342 265.874 -8.37836 308.619 -40.8154 351.07C-89.5168 414.704 -135.894 477.387 -170.292 530.381" stroke="#0A0A0A" stroke-miterlimit="10"/>
<path d="M1379.88 132.96C1367.22 41.3506 1346.5 -43.4362 1309.67 -102.913C1287.72 -138.673 1259.47 -164.6 1226.64 -175.079C1205.24 -182.045 1181.9 -182.147 1157.17 -174.591C1081.64 -151.352 999.559 -60.6597 927.553 -36.9617C899.52 -27.805 874.795 -24.7354 850.782 -31.5533C830.212 -37.4615 810.767 -50.4847 792.087 -65.948C766.17 -87.5302 739.534 -113.763 712.277 -130.02C697.325 -139.016 681.807 -144.59 665.653 -145.751C633.437 -147.987 603.503 -134.57 571.54 -114.107C525.418 -84.7102 472.894 -41.3491 416.32 -7.14003C410.441 -3.50774 404.557 -0.14456 398.668 2.94952C334.696 36.697 294.284 25.3128 254.365 39.7628C214.355 54.125 169.24 98.4859 113.701 163.273C97.3918 182.307 80.2162 203.154 62.4289 225.003C30.1171 264.947 -3.84119 308.339 -37.0093 350.636C-86.8073 414.038 -134.678 474.524 -170.512 523.522" stroke="#0A0A0A" stroke-miterlimit="10"/>
<path d="M1382.98 112.755C1369.99 22.3899 1348.47 -61.0516 1311.48 -119.371C1289.45 -154.42 1261.2 -179.814 1228.55 -190.119C1207.33 -196.912 1184.15 -197.377 1159.6 -189.912C1084.57 -167.757 1003.21 -80.5627 931.514 -54.1739C903.225 -43.9324 878.173 -38.7904 853.553 -44.0704C832.463 -48.6219 812.58 -60.7406 793.452 -75.8383C766.999 -96.8748 740.172 -123.289 713.154 -140.901C698.275 -150.619 683.004 -157.277 667.274 -159.615C635.539 -164.556 606.153 -155.097 574.473 -138.317C528.692 -114.127 475.609 -75.7708 418.307 -41.1791C412.336 -37.6337 406.364 -34.0883 400.565 -30.9059C336.241 4.1133 295.158 0.55051 256.062 20.8193C216.523 41.4571 173.388 90.8993 118.621 159.094C102.507 179.115 85.3432 200.774 67.5672 223.435C35.1817 264.647 0.776989 308.686 -33.0313 350.917C-83.9274 414.088 -133.294 472.377 -170.565 517.379" stroke="#0A0A0A" stroke-miterlimit="10"/>
<path d="M1386.18 92.3539C1372.84 2.96546 1350.72 -78.9531 1313.48 -135.932C1291.28 -170.086 1263.12 -194.86 1230.65 -205.261C1209.51 -211.967 1186.51 -212.526 1162.3 -205.517C1087.87 -184.359 1007.15 -100.483 935.839 -71.8536C907.386 -60.4393 881.916 -53.3119 856.867 -57.1469C835.257 -60.3411 814.932 -71.8239 795.448 -86.4678C768.458 -106.958 741.351 -133.64 714.663 -152.521C699.949 -162.873 684.924 -170.615 669.436 -174.306C638.184 -181.952 609.439 -176.367 577.95 -163.358C532.505 -144.648 478.777 -111.117 420.836 -76.325C414.776 -72.5974 408.803 -69.0513 402.825 -65.7744C338.064 -29.3022 296.305 -25.3092 258.13 1.13745C219.15 27.8716 177.995 82.3963 123.825 154.093C107.82 175.282 90.7592 197.841 72.9897 221.045C40.4444 263.705 5.59373 308.391 -28.8595 350.286C-80.7613 413.312 -131.715 469.315 -170.423 510.318" stroke="#0A0A0A" stroke-miterlimit="10"/>
<path d="M1389.29 72.1292C1375.52 -16.1012 1352.79 -96.4971 1315.29 -152.405C1293 -185.846 1264.86 -210.086 1232.65 -220.227C1211.6 -226.847 1188.86 -227.412 1164.82 -220.764C1090.89 -200.691 1010.73 -119.953 939.982 -89.1756C911.272 -76.6757 885.475 -67.4742 859.819 -69.7699C837.776 -71.7878 816.834 -82.2714 796.993 -96.4616C769.559 -116.318 742.257 -143.45 715.72 -163.506C701.08 -174.581 686.307 -183.138 671.146 -188.364C640.377 -198.716 612.18 -197.093 580.975 -187.77C535.779 -174.36 481.671 -145.933 422.916 -110.576C416.855 -106.848 410.788 -103.389 404.814 -99.8417C339.701 -62.097 297.184 -50.0943 259.92 -18.0054C221.417 15.2787 182.238 74.6194 128.928 149.544C113.119 171.721 96.162 195.181 78.3119 219.11C45.6932 263.037 10.3959 308.372 -24.6979 350.2C-77.6983 412.995 -130.149 466.797 -170.295 503.8" stroke="#0A0A0A" stroke-miterlimit="10"/>
<path d="M1392.49 51.7354C1378.47 -35.4297 1355.04 -114.389 1317.19 -169.043C1294.83 -201.772 1266.78 -225.39 1234.65 -235.445C1213.69 -241.978 1191.13 -242.638 1167.35 -236.264C1094.1 -217.37 1014.4 -139.86 944.046 -106.57C915.08 -92.9845 888.956 -81.708 862.779 -82.6454C840.216 -83.3048 818.836 -92.8827 798.541 -106.976C770.571 -126.285 742.986 -153.687 716.689 -175.099C702.122 -186.896 687.595 -196.539 672.768 -203.031C642.39 -216.178 614.835 -218.432 583.913 -212.796C539.053 -204.87 484.3 -181.272 424.909 -145.445C418.755 -141.804 412.692 -138.075 406.63 -134.346C341.258 -95.2404 297.983 -75.2247 261.63 -37.4916C223.599 2.07569 186.49 66.3217 133.776 144.751C118.076 168.097 101.131 192.37 83.3789 216.93C50.6868 262.126 14.9429 308.108 -20.8833 349.781C-74.9824 412.344 -128.93 463.946 -170.515 496.947" stroke="#0A0A0A" stroke-miterlimit="10"/>
<path d="M1395.51 31.4156C1381.06 -54.5905 1357.02 -132.026 1319.01 -185.52C1296.48 -217.354 1268.51 -240.62 1236.66 -250.413C1215.87 -256.773 1193.49 -257.526 1169.96 -251.696C1097.22 -233.888 1018.25 -159.612 948.282 -124.079C918.972 -109.225 892.695 -96.2358 865.915 -95.3632C842.832 -94.6637 820.921 -103.423 800.27 -117.062C771.762 -135.825 743.988 -163.407 717.929 -186.178C703.527 -198.61 689.16 -209.157 674.667 -216.915C644.857 -232.953 617.765 -238.991 587.127 -237.043C542.608 -234.334 487.296 -215.75 427.085 -179.628C420.843 -175.804 414.779 -172.074 408.715 -168.344C342.905 -127.784 298.957 -99.9332 263.608 -56.4654C226.054 -10.3428 190.923 58.7232 138.892 140.477C123.388 164.812 106.545 189.986 88.7132 215.272C55.8608 261.918 19.6699 308.549 -16.6239 349.792C-71.7308 412.211 -127.268 461.523 -170.206 490.339" stroke="#0A0A0A" stroke-miterlimit="10"/>
<path d="M1398.62 11.1949C1383.82 -73.8325 1359.09 -149.561 1320.82 -201.982C1298.12 -233.189 1270.16 -255.652 1238.57 -265.454C1217.88 -271.726 1195.66 -272.574 1172.3 -267.106C1100.16 -250.296 1021.74 -179.163 952.253 -141.567C922.779 -125.538 896.082 -110.561 868.781 -108.329C845.264 -106.451 822.822 -114.392 801.728 -127.395C772.683 -145.61 744.714 -173.643 718.9 -197.502C704.57 -210.658 690.451 -222.29 676.291 -231.316C646.965 -250.064 620.423 -260.069 590.155 -261.993C545.973 -264.772 490.107 -250.934 429.168 -214.429C422.924 -210.605 416.68 -206.78 410.62 -202.78C344.459 -160.946 299.844 -124.988 265.229 -75.7774C228.239 -23.2786 195.088 50.6085 143.833 135.776C128.524 161.1 111.699 187.356 93.8729 213.186C60.9471 261.101 24.3093 308.38 -12.7175 349.468C-68.9239 411.655 -125.96 458.764 -170.337 483.575" stroke="#0A0A0A" stroke-miterlimit="10"/>
<path d="M1401.83 -9.21823C1386.69 -92.9977 1361.35 -167.47 1322.73 -218.637C1299.94 -249.129 1272.09 -270.97 1240.49 -280.504C1219.88 -286.691 1197.84 -287.632 1174.74 -282.439C1103.1 -266.715 1025.24 -198.726 956.232 -158.797C926.501 -141.681 899.385 -124.713 871.655 -121.033C847.616 -117.796 824.736 -124.83 803.279 -137.647C773.696 -155.315 745.537 -183.53 719.962 -208.747C705.885 -222.72 691.925 -235.258 678.007 -245.639C649.164 -267.098 623.264 -280.984 593.188 -286.688C549.343 -294.957 492.83 -285.955 431.254 -248.979C424.917 -245.242 418.677 -241.147 412.524 -237.234C346.016 -193.856 300.728 -150.057 267.025 -95.1945C230.605 -36.0473 199.342 42.576 148.77 131.071C133.57 157.566 116.936 184.543 98.9425 211.28C65.8563 260.646 28.8578 308.393 -8.81067 349.414C-66.1176 411.368 -124.653 456.274 -170.562 476.99" stroke="#0A0A0A" stroke-miterlimit="10"/>
<path d="M1404.95 -29.4504C1389.46 -112.251 1363.42 -185.016 1324.55 -235.109C1301.68 -264.887 1273.82 -286.193 1242.5 -295.466C1222.07 -301.478 1200.2 -302.514 1177.36 -297.864C1106.32 -283.141 1029.01 -218.296 960.473 -176.302C930.578 -158.01 903.042 -139.052 874.794 -133.741C850.235 -129.143 826.823 -135.358 805.009 -147.721C774.888 -164.841 746.447 -193.326 721.024 -219.72C707.02 -234.417 693.4 -247.953 679.723 -259.691C651.451 -284.044 626.014 -301.719 596.222 -311.116C552.626 -324.697 495.645 -320.627 433.249 -283.355C426.91 -279.617 420.576 -275.609 414.427 -271.425C347.567 -226.772 301.79 -174.952 268.728 -114.43C232.966 -48.8134 203.683 34.6359 153.708 126.641C138.704 154.126 122.086 182.187 104.099 209.47C70.9393 260.106 33.4983 308.771 -4.81732 349.456C-63.1335 411.266 -123.261 453.88 -170.611 470.587" stroke="#0A0A0A" stroke-miterlimit="10"/>
<path d="M1408.06 -49.6867C1392.14 -131.326 1365.58 -202.746 1326.46 -251.495C1303.42 -280.377 1275.75 -301.243 1244.51 -310.429C1224.25 -316.537 1202.56 -317.666 1179.89 -313.11C1109.44 -299.655 1032.69 -237.687 964.542 -193.446C934.302 -173.884 906.526 -153.028 877.756 -146.357C852.675 -140.397 828.818 -145.974 806.468 -157.788C775.901 -174.273 747.177 -203.026 721.994 -230.781C708.156 -246.114 694.343 -260.098 681.44 -273.744C654.259 -302.083 628.765 -322.458 599.256 -335.55C556.089 -354.538 498.369 -355.396 435.335 -317.653C428.908 -313.732 422.573 -309.723 416.335 -305.357C349.036 -259.246 302.678 -199.491 270.53 -133.312C235.424 -61.223 207.944 27.1481 158.74 122.302C144.024 150.865 127.418 179.741 109.35 207.75C76.1163 259.657 38.2276 308.972 -0.822266 349.501C-60.24 411.079 -121.868 451.488 -170.661 464.185" stroke="#0A0A0A" stroke-miterlimit="10"/>
<path d="M1411.27 -70.1266C1395.1 -150.699 1367.75 -220.497 1328.37 -268.172C1305.25 -296.339 1277.49 -316.488 1246.61 -325.595C1226.44 -331.615 1204.92 -332.84 1182.6 -328.74C1112.65 -316.373 1036.64 -257.377 968.877 -211.156C938.472 -190.417 910.276 -167.57 880.897 -159.354C855.381 -152.215 830.998 -156.702 808.285 -168.331C777.179 -184.267 748.259 -213.473 723.321 -242.318C709.555 -258.375 696.342 -273.905 683.334 -288.181C656.116 -318.144 631.78 -343.765 602.469 -360.371C559.639 -384.857 501.362 -390.469 437.599 -352.342C431.078 -348.508 424.747 -344.229 418.507 -339.862C350.856 -292.475 304.008 -224.692 272.507 -152.579C238.058 -74.0149 212.469 19.0985 163.862 117.766C149.255 147.502 132.661 177.192 114.691 205.835C81.2967 259.195 43.0466 308.978 3.35402 349.441C-57.0792 410.604 -120.204 449.077 -170.531 457.674" stroke="#0A0A0A" stroke-miterlimit="10"/>
<path d="M1414.31 -90.4465C1397.7 -169.856 1369.83 -238.308 1330.1 -284.726C1306.9 -312.177 1279.15 -331.791 1248.44 -340.724C1228.45 -346.57 1207.11 -347.888 1184.95 -344.151C1115.6 -332.785 1040.15 -276.938 972.86 -228.65C942.203 -206.552 913.673 -181.894 883.863 -172.228C857.826 -163.726 832.911 -167.393 809.84 -178.566C778.196 -193.955 749.086 -223.342 724.387 -253.547C710.787 -270.241 697.729 -286.947 685.055 -302.493C658.408 -335.353 634.537 -364.768 605.51 -385.073C562.93 -414.876 504.272 -425.608 439.599 -387.003C433.077 -383.169 426.566 -378.795 420.238 -374.245C352.326 -325.493 304.896 -249.768 274.039 -171.989C240.34 -86.8589 216.555 11.1799 168.633 113.18C154.222 143.907 137.732 174.501 119.682 203.87C86.2134 258.503 47.4283 309.117 7.08781 349.242C-54.3557 410.261 -119.074 446.438 -170.845 451.022" stroke="#0A0A0A" stroke-miterlimit="10"/>
<path d="M1417.52 -110.891C1400.57 -189.319 1372.01 -256.061 1332.1 -301.315C1308.64 -327.957 1281.17 -347.04 1250.55 -355.887C1230.65 -361.647 1209.47 -363.06 1187.49 -359.686C1118.65 -349.409 1043.93 -296.536 976.939 -246.086C946.117 -222.81 917.167 -196.158 886.748 -184.947C860.188 -175.083 834.741 -177.929 811.399 -188.829C779.304 -203.85 749.824 -233.325 725.456 -264.804C711.93 -282.223 699.212 -299.93 686.78 -316.833C660.617 -352.411 637.39 -385.715 608.555 -409.806C566.404 -445.024 507.006 -460.69 441.695 -421.614C435.085 -417.596 428.572 -413.221 422.243 -408.67C353.892 -358.46 306.059 -274.884 275.936 -191.347C242.982 -99.9188 221.003 3.04751 173.766 108.382C159.465 140.282 143.165 171.597 125.034 201.694C91.4919 257.599 52.2586 308.863 11.275 348.921C-51.2714 409.707 -117.493 443.676 -170.707 444.244" stroke="#0A0A0A" stroke-miterlimit="10"/>
<path d="M1420.65 -131.147C1403.44 -208.506 1374.09 -273.624 1333.93 -317.802C1310.38 -343.727 1282.91 -362.275 1252.56 -370.86C1232.75 -376.533 1211.84 -377.952 1190.11 -375.123C1121.96 -366.03 1047.71 -316.127 981.194 -263.608C950.12 -238.972 920.837 -210.508 889.894 -197.933C862.812 -186.705 837.011 -188.824 813.041 -199.262C780.406 -213.735 750.822 -243.573 726.516 -276.32C713.063 -294.464 700.684 -313.172 688.587 -331.347C662.996 -369.824 640.32 -407.107 611.683 -434.717C569.957 -475.62 509.916 -495.865 443.874 -456.404C437.171 -452.474 430.748 -448.01 424.244 -443.095C355.54 -391.606 307.217 -299.994 277.738 -210.786C245.442 -112.875 225.269 -4.97961 178.809 103.778C164.705 136.67 148.422 169.071 130.297 199.714C96.5945 257.073 56.9996 308.805 15.2806 348.708C-48.3691 409.261 -116.094 441.021 -170.753 437.572" stroke="#0A0A0A" stroke-miterlimit="10"/>
<path d="M1423.78 -151.411C1406.14 -227.606 1376.26 -291.376 1335.75 -334.296C1312.13 -359.505 1284.67 -377.247 1254.49 -385.928C1234.85 -391.426 1214.03 -393.027 1192.56 -390.474C1124.91 -382.47 1051.4 -335.544 985.271 -281.043C953.939 -255.317 924.327 -224.769 892.866 -210.56C865.261 -197.968 838.928 -199.265 814.599 -209.248C781.425 -223.171 751.558 -253.28 727.583 -287.302C714.297 -306.083 702.073 -325.969 690.311 -345.415C665.291 -386.793 643.08 -427.874 614.727 -459.187C573.339 -505.597 512.649 -530.692 445.876 -490.847C439.171 -486.916 432.568 -482.357 426.154 -477.352C357.01 -424.404 308.191 -325.021 279.453 -229.78C247.995 -125.478 229.628 -12.6506 183.675 99.5381C169.767 133.422 153.496 166.64 135.383 198.099C101.606 256.732 61.475 309.297 19.286 348.768C-45.3759 409.176 -114.697 438.638 -170.801 431.171" stroke="#0A0A0A" stroke-miterlimit="10"/>
<path d="M1427 -171.861C1409.11 -246.987 1378.44 -309.132 1337.76 -350.887C1314.06 -375.379 1286.6 -392.586 1256.69 -401.004C1237.14 -406.416 1216.49 -408.111 1195.29 -405.834C1128.23 -398.833 1055.37 -354.972 989.538 -298.306C958.046 -271.13 928.007 -238.856 896.022 -223.283C867.982 -209.508 841.121 -209.713 816.428 -219.51C782.806 -232.797 752.656 -263.175 728.921 -298.56C715.708 -318.067 703.825 -338.955 692.218 -359.579C667.77 -403.859 646.116 -448.653 617.956 -483.758C576.91 -535.407 515.658 -565.535 448.153 -525.306C441.36 -521.192 434.755 -516.632 428.161 -511.533C358.755 -457.217 309.353 -349.879 281.351 -248.873C250.552 -138.083 234.172 -20.4153 188.813 95.0241C175.106 130.171 158.846 164.206 140.652 196.393C106.801 256.3 66.2215 309.516 23.2962 348.832C-42.4705 409.007 -113.297 436.258 -170.76 424.589" stroke="#0A0A0A" stroke-miterlimit="10"/>
<path d="M1430.13 -192.143C1411.81 -266.104 1380.62 -326.9 1339.59 -367.395C1315.72 -390.988 1288.35 -407.84 1258.62 -416.084C1239.16 -421.409 1218.86 -423.293 1197.83 -421.379C1131.28 -415.469 1059.07 -374.405 993.711 -315.938C962.053 -287.583 931.594 -253.312 899.177 -236.285C870.614 -221.145 843.307 -220.711 818.168 -229.869C784.007 -242.606 753.661 -273.437 730.171 -309.915C717.124 -330.06 705.402 -351.856 694.124 -374.023C670.162 -421.024 649.061 -469.801 621.272 -508.794C580.564 -565.953 518.755 -600.848 450.519 -560.234C443.724 -556.119 436.939 -551.465 430.435 -546.276C360.59 -490.499 310.87 -375.479 283.426 -268.613C253.373 -151.514 238.715 -28.7293 194.134 90.1372C180.624 126.277 164.468 161.217 146.193 194.133C112.182 255.496 71.2394 309.181 27.6699 348.429C-39.2015 408.371 -111.533 433.41 -170.443 417.718" stroke="#0A0A0A" stroke-miterlimit="10"/>
<path d="M1433.27 -212.674C1414.6 -285.652 1382.71 -344.733 1341.43 -384.151C1317.47 -407.027 1290.2 -423.254 1260.55 -431.412C1241.27 -436.832 1221.06 -438.628 1200.28 -436.99C1134.33 -432.083 1062.87 -394 997.711 -333.454C965.801 -303.737 935.094 -267.833 901.979 -249.075C872.892 -232.57 845.052 -231.313 819.462 -240.103C784.761 -252.29 754.223 -283.304 730.795 -321.051C717.821 -341.923 706.439 -364.722 695.496 -388.161C672.286 -438.162 651.471 -490.648 623.967 -533.347C583.51 -595.838 521.138 -635.771 452.17 -594.773C445.281 -590.745 438.499 -585.819 431.994 -580.63C361.795 -523.573 311.584 -400.502 284.876 -287.867C255.749 -164.551 242.813 -36.6459 198.739 85.656C185.426 122.79 169.195 158.729 151.019 192.28C116.933 254.918 75.5409 309.254 31.2345 348.347C-36.6506 408.144 -110.581 430.882 -170.938 411.167" stroke="#0A0A0A" stroke-miterlimit="10"/>
<path d="M1436.41 -232.969C1406.29 -346.33 1342.62 -424.616 1262.58 -446.414C1182.53 -468.212 1087.01 -432.914 1001.98 -350.74C969.821 -319.66 938.78 -281.939 905.14 -261.815C835.45 -219.891 772.341 -264.5 732.135 -332.324C692.021 -400.061 667.406 -490.125 627.287 -558.132C587.26 -626.05 524.238 -670.842 454.537 -629.458C373.297 -581.059 315.337 -436.71 286.864 -307.168C258.397 -177.355 247.358 -44.6918 204.063 81.0409C166.254 190.796 104.6 288.658 35.6081 348.221C-33.3833 407.784 -108.821 428.309 -170.627 404.569" stroke="#0A0A0A" stroke-miterlimit="10"/>
<path d="M1425.26 -254.533C1394.7 -365.976 1331.12 -442.063 1251.59 -462.266C1172.06 -482.47 1077.47 -447.26 993.559 -364.698C960.85 -332.504 929.473 -292.137 895.753 -270.196C827.328 -225.66 765.152 -266.445 724.742 -329.173C684.425 -391.812 658.625 -476.682 617.811 -541.653C576.525 -607.606 514.137 -654.696 444.421 -616.17C363.51 -571.083 303.635 -429.752 273.876 -300.005C244.117 -170.259 233.731 -36.0805 193.088 88.0522C157.92 195.386 99.1459 290.001 33.4389 348.808C-32.2682 407.614 -104.831 429.889 -165.273 408.805" stroke="#0A0A0A" stroke-miterlimit="10"/>
<path d="M1413.94 -276.014C1382.94 -385.266 1319.45 -459.422 1240.43 -478.298C1161.4 -497.175 1067.65 -461.602 984.961 -378.564C951.617 -345.072 920.171 -302.333 886.37 -278.572C819.392 -231.515 757.969 -268.376 717.449 -325.912C676.749 -383.353 649.849 -463.203 608.425 -525.318C565.791 -589.12 504.121 -638.964 434.301 -603.118C353.714 -561.617 291.933 -422.767 260.875 -293.358C229.817 -163.948 219.997 -28.0709 182.191 94.3651C149.847 199.18 93.6893 290.821 31.2713 348.869C-31.2391 406.829 -100.83 430.945 -159.906 412.521" stroke="#0A0A0A" stroke-miterlimit="10"/>
<path d="M1402.79 -297.618C1371.27 -404.766 1307.86 -476.718 1229.43 -494.449C1151.01 -512.18 1058.1 -475.972 976.533 -392.544C942.553 -357.752 911.038 -312.636 876.974 -286.959C811.351 -237.465 750.955 -270.404 710.05 -322.735C669.145 -375.067 641.143 -449.892 598.928 -509.053C555.036 -570.614 493.99 -623.304 424.157 -590.053C343.805 -551.961 280.201 -415.776 247.842 -286.702C215.482 -157.628 206.409 -20.1422 171.267 100.962C141.654 202.897 88.3931 291.825 29.088 349.21C-30.1299 406.411 -96.752 432.099 -154.549 416.522" stroke="#0A0A0A" stroke-miterlimit="10"/>
<path d="M1391.56 -319.313C1359.69 -424.45 1296.18 -494.373 1218.27 -510.503C1140.36 -526.633 1048.29 -490.06 967.932 -406.423C933.314 -370.33 901.816 -323.016 867.402 -295.237C803.222 -243.485 743.585 -272.219 702.387 -319.252C661.189 -366.284 632.082 -436.078 589.162 -492.465C543.91 -552.141 483.591 -607.053 413.646 -576.758C333.529 -542.079 268.185 -408.743 234.433 -279.821C200.774 -150.811 192.439 -12.2553 159.965 107.516C133.091 206.839 82.5455 292.876 26.5368 349.502C-29.472 406.127 -93.1215 433.391 -149.639 420.663" stroke="#0A0A0A" stroke-miterlimit="10"/>
<path d="M1380.33 -340.796C1347.93 -443.825 1284.59 -511.723 1207.28 -526.433C1129.97 -541.144 1038.75 -504.204 959.597 -420.357C924.34 -382.96 892.677 -333.351 858.18 -303.744C795.444 -249.73 736.567 -274.255 695.161 -316.164C653.756 -358.074 623.274 -422.553 579.827 -476.257C533.218 -533.776 473.621 -591.183 403.655 -563.76C323.863 -532.41 256.503 -401.921 221.629 -273.156C186.663 -144.48 178.985 -4.39629 149.275 114.13C125.051 210.75 77.4042 293.798 24.696 349.664C-28.0122 405.531 -88.7729 434.554 -143.829 424.585" stroke="#0A0A0A" stroke-miterlimit="10"/>
<path d="M1369.11 -362.544C1336.27 -463.375 1273.01 -529.334 1196.12 -542.528C1119.23 -555.722 1029.03 -518.239 950.995 -434.27C915.097 -395.566 883.449 -343.753 848.692 -311.948C787.397 -255.941 729.464 -276.074 687.671 -312.759C645.97 -349.356 614.378 -408.791 570.221 -459.713C522.165 -514.889 463.465 -575.162 393.297 -550.521C313.737 -522.593 244.541 -394.775 208.27 -266.161C171.999 -137.546 164.968 3.52498 138.026 120.805C116.451 214.448 71.7173 295.046 22.2214 350.064C-27.2745 405.083 -84.9629 435.775 -138.737 428.663" stroke="#0A0A0A" stroke-miterlimit="10"/>
<path d="M1357.99 -383.779C1324.63 -482.468 1261.56 -546.378 1185.2 -558.233C1108.84 -570.089 1019.62 -531.889 942.727 -447.822C906.199 -407.822 874.486 -353.905 839.568 -320.094C779.822 -262.29 722.588 -277.742 680.693 -309.192C638.705 -340.731 605.838 -394.734 561.079 -442.768C511.677 -495.766 453.628 -558.612 383.554 -536.768C304.346 -512.186 233.329 -387.352 195.672 -258.926C158.015 -130.499 151.814 11.4253 127.478 127.789C108.564 218.425 66.756 296.275 20.4988 350.7C-25.671 404.941 -80.3508 437.478 -132.828 432.957" stroke="#0A0A0A" stroke-miterlimit="10"/>
<path d="M1346.68 -404.855C1312.99 -501.492 1249.93 -563.254 1174.2 -573.68C1098.48 -584.106 1010.13 -545.28 934.397 -461.118C897.241 -419.823 865.642 -363.898 830.297 -327.802C772.014 -268.291 715.574 -278.97 673.486 -305.268C631.218 -331.472 599.521 -385.431 551.799 -425.633C498.34 -470.774 443.75 -541.778 373.589 -522.912C294.737 -501.678 221.815 -379.654 182.952 -251.516C144.089 -123.378 138.359 19.5837 116.994 134.837C100.655 222.642 61.7787 297.738 18.9404 351.2C-23.9854 404.845 -75.5689 438.772 -126.74 437.116" stroke="#0A0A0A" stroke-miterlimit="10"/>
<path d="M1335.56 -426.036C1301.35 -520.523 1238.39 -580.318 1163.21 -589.132C1088.02 -598.217 1000.65 -558.675 926.156 -474.601C888.371 -432.009 856.707 -373.981 821.203 -335.877C764.383 -274.656 708.919 -280.653 666.37 -301.519C623.91 -322.567 590.927 -371.627 542.607 -408.662C487.539 -451.068 433.961 -525.108 363.804 -509.134C285.216 -491.34 210.48 -372.038 170.317 -244.278C130.155 -116.517 125.076 27.3873 106.504 141.624C92.7375 226.324 56.981 298.842 17.2967 351.618C-22.3876 404.394 -70.9543 440.166 -120.731 441.194" stroke="#0A0A0A" stroke-miterlimit="10"/>
<path d="M1324.36 -447.298C1289.62 -539.634 1226.86 -597.373 1152.22 -604.844C1077.57 -612.314 991.271 -572.24 917.832 -488.16C879.51 -444.182 847.776 -384.319 812.03 -343.751C756.762 -281.004 702.005 -282.038 659.264 -297.744C616.522 -313.45 579.724 -351.754 533.423 -391.655C479.624 -437.91 424.265 -508.587 353.933 -495.412C275.701 -480.972 198.963 -364.571 157.592 -237.1C116.221 -109.628 111.61 35.043 95.9298 148.622C84.6461 230.127 51.924 300.247 15.5767 352.243C-20.7705 404.238 -66.4108 441.768 -114.792 445.483" stroke="#0A0A0A" stroke-miterlimit="10"/>
<path d="M1313.15 -468.3C1277.98 -558.395 1215.24 -613.981 1141.22 -620.291C1067.2 -626.602 981.793 -585.628 909.507 -501.454C870.555 -456.178 838.751 -394.48 802.762 -351.445C748.868 -287.076 695.094 -283.149 652.066 -293.78C609.131 -304.323 571.055 -337.176 524.239 -374.362C469.004 -418.246 414.482 -491.596 344.242 -481.499C266.28 -470.233 187.807 -357.014 145.047 -229.738C102.287 -102.461 98.3225 42.8815 85.5329 155.53C76.6461 234.02 47.1366 301.375 14.1295 352.588C-18.8777 403.802 -61.5011 442.908 -108.573 449.494" stroke="#0A0A0A" stroke-miterlimit="10"/>
<path d="M1301.95 -489.578C1266.35 -577.704 1203.71 -631.047 1130.24 -635.741C1056.77 -640.436 972.331 -598.744 901.193 -514.746C861.702 -468.081 829.826 -404.546 793.59 -359.314C741.151 -293.775 688.27 -284.7 645.054 -289.893C601.837 -295.086 562.387 -322.572 515.055 -357.043C458.201 -398.46 404.695 -474.58 334.459 -467.382C256.852 -459.474 176.465 -349.071 132.406 -221.898C88.3464 -94.7263 84.7517 51.0258 75.0456 163.194C68.4597 238.308 42.268 303.529 12.5102 353.872C-17.2475 404.216 -56.8475 445.173 -102.523 454.448" stroke="#0A0A0A" stroke-miterlimit="10"/>
<path d="M1290.74 -510.582C1254.72 -596.463 1192.18 -647.834 1119.25 -651.183C1046.32 -654.531 962.954 -612.033 892.971 -527.941C852.761 -479.793 820.903 -414.603 784.424 -366.901C733.355 -300.01 681.37 -285.784 637.959 -285.806C594.456 -285.917 553.637 -307.76 505.877 -339.695C447.585 -378.738 395.009 -457.446 324.591 -453.325C247.342 -448.778 165.041 -341.195 119.677 -214.401C74.3131 -87.6075 71.0936 58.8236 64.4686 170.238C60.1909 242.244 37.3103 304.784 10.8106 354.528C-15.689 404.273 -52.2671 446.808 -96.543 458.775" stroke="#0A0A0A" stroke-miterlimit="10"/>
<path d="M1279.55 -531.864C1243.01 -615.588 1180.57 -664.985 1108.27 -666.898C1035.97 -668.812 953.499 -625.412 884.754 -541.681C844.005 -492.143 811.89 -425.291 775.441 -375.123C725.743 -306.879 674.748 -287.409 630.962 -282.161C587.177 -276.914 544.983 -293.383 496.794 -322.78C436.881 -359.353 385.324 -440.835 314.91 -439.615C237.931 -438.249 153.796 -333.942 107.131 -207.255C60.4666 -80.5685 57.4365 66.3652 53.9883 177.113C51.8351 245.832 32.3663 306.05 9.30304 354.828C-13.848 403.789 -47.4016 447.904 -90.4529 462.932" stroke="#0A0A0A" stroke-miterlimit="10"/>
<path d="M1268.45 -553.065C1231.56 -634.725 1169.13 -681.963 1097.29 -682.345C1025.44 -682.728 944.227 -638.615 876.454 -554.967C835.165 -504.038 802.973 -435.617 766.193 -382.793C717.862 -313.466 667.857 -288.748 623.789 -278.139C579.721 -267.53 536.151 -278.621 487.533 -305.479C425.997 -339.578 375.372 -423.652 304.957 -425.609C228.335 -427.609 142.281 -326.126 94.4026 -199.729C46.431 -73.4212 43.5028 74.1987 43.5081 184.274C43.4864 249.976 27.5152 307.414 7.71571 355.592C-12.0837 403.769 -42.6982 449.649 -84.3482 467.373" stroke="#0A0A0A" stroke-miterlimit="10"/>
<path d="M1257.16 -574.163C1219.75 -653.663 1157.52 -698.836 1086.31 -697.781C1015.1 -696.726 934.775 -651.71 868.153 -568.24C826.236 -515.735 793.875 -445.834 756.944 -390.445C709.893 -319.851 660.878 -289.882 616.615 -274.09C572.352 -258.299 527.228 -263.64 478.268 -288.14C415.113 -319.493 365.503 -406.617 295.092 -411.481C218.739 -416.666 130.852 -318.192 81.6649 -192.174C32.3898 -65.9722 29.4706 82.2465 32.8394 191.561C34.7651 254.065 22.5737 308.989 5.94788 356.477C-10.5901 403.782 -38.082 451.333 -78.3246 472.027" stroke="#0A0A0A" stroke-miterlimit="10"/>
<path d="M1246.07 -595.375C1208.23 -672.625 1146.1 -715.818 1075.43 -713.414C1004.76 -711.009 925.601 -665.097 859.953 -581.709C817.495 -527.812 784.876 -456.246 747.882 -398.475C702.113 -326.613 654.183 -291.3 609.725 -270.323C565.179 -249.162 518.769 -249.028 469.286 -271.074C404.599 -299.862 355.917 -389.854 285.417 -397.715C209.422 -406.27 119.702 -310.809 69.0295 -184.804C18.357 -58.798 15.359 90.2022 22.4562 198.564C26.4241 257.957 17.742 310.37 4.56166 356.889C-8.61869 403.409 -33.1659 452.727 -72.0047 476.121" stroke="#0A0A0A" stroke-miterlimit="10"/>
<path d="M1234.97 -616.591C1196.61 -691.677 1134.67 -732.803 1064.45 -728.864C994.238 -724.925 916.157 -678.203 851.75 -595.177C808.662 -539.702 775.868 -466.925 738.822 -406.225C694.33 -333.367 647.485 -292.706 602.743 -266.355C558.002 -240.005 510.035 -234.113 460.121 -253.614C393.718 -279.74 346.146 -372.698 275.649 -383.47C199.924 -395.214 108.274 -302.855 56.3833 -177.14C4.49263 -51.425 1.05359 98.5482 11.9704 205.774C17.7085 262.061 12.9006 311.771 2.99288 357.689C-7.00793 403.518 -28.427 454.509 -65.8612 480.605" stroke="#0A0A0A" stroke-miterlimit="10"/>
<path d="M1223.7 -637.703C1184.9 -710.808 1122.98 -749.495 1053.39 -744.389C983.901 -739.193 906.72 -691.294 843.375 -608.535C799.745 -551.665 766.6 -477.308 729.583 -414.134C686.281 -340.095 640.616 -293.993 595.497 -262.354C550.379 -230.715 501.035 -219.156 450.777 -236.294C382.75 -259.668 336.201 -355.409 265.609 -369.456C190.154 -384.392 96.6654 -295.049 43.5554 -169.625C-9.64771 -44.2894 -13.616 106.841 1.21728 213.018C8.73227 266.469 7.80231 313.474 1.16505 358.517C-5.47222 403.561 -23.8536 456.138 -59.9698 485.122" stroke="#0A0A0A" stroke-miterlimit="10"/>
<path d="M1212.61 -658.936C1173.28 -729.875 1111.46 -766.579 1042.52 -760.031C973.477 -753.3 897.468 -704.501 835.185 -622.009C791.017 -563.47 757.422 -487.895 720.44 -421.971C678.236 -346.839 633.752 -295.293 588.437 -258.457C543.122 -221.62 492.312 -204.206 441.71 -218.98C371.969 -239.415 326.527 -338.399 255.938 -355.36C180.753 -373.491 85.4242 -287.167 31.0005 -162.122C-23.4232 -37.0778 -28.1903 115.489 -9.07988 220.155C0.213705 270.767 3.15999 314.793 -0.110616 359.05C-3.38122 403.307 -18.81 457.655 -53.5191 489.344" stroke="#0A0A0A" stroke-miterlimit="10"/>
<path d="M1201.44 -680.246C1161.68 -748.927 1099.96 -783.648 1031.56 -775.473C963.157 -767.299 888.225 -717.689 826.918 -635.28C782.206 -575.344 748.259 -498.188 711.306 -429.785C670.202 -353.56 626.986 -296.749 581.386 -254.527C535.787 -212.305 483.509 -189.032 432.557 -201.712C361.189 -219.391 316.678 -321.252 246.087 -341.404C171.171 -362.731 74.0881 -279.611 18.261 -154.762C-37.566 -29.9139 -43.2209 124.275 -19.7412 227.244C-8.7553 275.199 -1.92905 316.245 -1.82987 359.714C-1.82391 403.095 -14.2042 459.305 -47.505 493.702" stroke="#0A0A0A" stroke-miterlimit="10"/>
<path d="M1190.25 -701.305C1150.06 -767.728 1088.45 -800.463 1020.59 -790.934C952.727 -781.405 878.972 -730.621 818.724 -648.752C773.473 -587.145 738.981 -508.856 702.249 -437.523C662.244 -360.202 620.211 -297.939 574.414 -250.512C528.617 -203.085 474.777 -174.037 423.48 -184.349C350.488 -198.996 306.991 -304.193 236.402 -327.265C161.756 -351.792 62.8285 -271.693 5.77787 -147.136C-51.3608 -22.3948 -57.9925 133.602 -29.963 234.506C-17.3712 279.986 -6.39198 317.769 -3.10115 360.546C0.18968 403.324 -8.96304 461.028 -41.0358 498.231" stroke="#0A0A0A" stroke-miterlimit="10"/>
<path d="M1179.09 -722.641C1138.46 -787.078 1076.94 -817.553 1009.72 -806.579C942.497 -795.605 869.733 -743.824 810.548 -662.222C764.845 -599.125 729.813 -519.43 693.115 -445.34C654.122 -366.74 613.453 -299.114 567.458 -246.477C521.375 -193.656 466.062 -158.74 414.326 -166.772C339.613 -178.474 297.231 -286.649 226.638 -312.916C152.26 -340.645 51.3915 -263.659 -6.97291 -139.208C-65.3373 -14.7563 -73.2109 143.603 -40.6322 242.168C-26.4328 285.172 -11.4776 319.786 -4.72249 361.592C1.94455 403.582 -4.24737 463.062 -34.91 502.977" stroke="#0A0A0A" stroke-miterlimit="10"/>
<path d="M1168.01 -743.884C1126.95 -806.059 1065.54 -834.545 998.768 -822.031C932.088 -809.7 860.497 -757.017 802.29 -675.498C756.047 -610.728 720.469 -529.899 683.987 -453.147C646.096 -373.45 606.7 -300.548 560.331 -242.33C514.05 -184.296 457.264 -143.508 405.088 -149.257C328.66 -157.74 287.294 -269.256 216.698 -298.719C142.59 -329.652 39.9616 -255.877 -19.8105 -131.623C-79.5825 -7.36779 -88.6111 153.169 -51.2094 249.114C-35.401 289.639 -16.3782 320.897 -6.33174 362.098C3.7147 403.3 0.574766 464.372 -28.8523 507.369" stroke="#0A0A0A" stroke-miterlimit="10"/>
<path d="M1156.75 -765.029C1115.16 -825.03 1053.85 -851.525 987.717 -837.564C921.586 -823.603 851.169 -770.016 793.935 -688.854C747.238 -622.592 710.937 -540.26 674.672 -460.843C637.701 -379.953 599.765 -301.592 553.104 -238.246C506.443 -174.9 448.276 -128.146 395.748 -131.795C317.69 -137.24 277.252 -251.915 206.746 -284.489C132.82 -318.444 28.4275 -247.883 -32.6661 -124.008C-93.7597 -0.133235 -104.199 163.683 -61.9741 256.732C-44.5497 295.051 -21.4552 322.951 -8.11936 363.274C5.21645 403.597 5.13668 466.537 -22.8775 512.25" stroke="#0A0A0A" stroke-miterlimit="10"/>
<path d="M1145.68 -786.305C1103.74 -844.225 1042.36 -868.361 976.858 -853.225C911.271 -837.905 842.035 -783.141 785.863 -702.52C738.625 -634.582 701.777 -551.115 665.821 -468.943C629.866 -386.771 593.204 -303.125 546.345 -234.558C499.485 -165.991 439.848 -113.083 386.874 -114.719C307.096 -116.939 267.766 -235.145 197.167 -270.737C123.599 -308.084 17.2665 -240.371 -45.0561 -116.788C-107.379 6.79497 -119.323 173.803 -72.1879 263.497C-53.1408 299.88 -25.981 323.873 -9.25926 363.406C7.46252 402.939 10.3524 467.657 -16.2474 516.089" stroke="#0A0A0A" stroke-miterlimit="10"/>
</svg>
