<svg viewBox="0 0 286.77 92.25" xmlns="http://www.w3.org/2000/svg" data-name="Layer 2" id="Layer_2">
  <defs>
    <style>
      .cls-1 {
        fill: #231f20;
      }
    </style>
  </defs>
  <g data-name="Layer 1" id="Layer_1-2">
    <g>
      <path d="M39.36,19.22v18.07c-4.75,4.75-10.34,7-17.34,7C8.76,44.29,0,35.53,0,22.14S9.19,0,22.51,0c6.08,0,11.62,2.25,15.82,6.57l-4.56,4.56c-2.86-2.86-7.18-4.56-11.32-4.56-9.06,0-15.33,6.27-15.33,15.57s5.84,15.57,14.9,15.57c4.26,0,7.73-1.09,10.77-3.47v-8.76h-11.92v-6.27h18.49Z" class="cls-1"></path>
      <path d="M63.58,28.9h-8.64v14.54h-7.12V.85h19.95c9.13,0,15.09,5.6,15.09,14.05,0,7.06-4.2,12.11-11.01,13.57l12.96,14.97h-8.88l-12.35-14.54ZM67.71,7.42h-12.84v14.97h12.84c5.05,0,8.09-2.8,8.09-7.48s-3.04-7.48-8.09-7.48Z" class="cls-1"></path>
      <path d="M91.14,25.79V.85h7.06v24.82c0,7.36,4.38,12.05,11.19,12.05s11.19-4.68,11.19-12.05V.85h7.06v24.94c0,11.38-7.06,18.49-18.25,18.49s-18.25-7.12-18.25-18.49Z" class="cls-1"></path>
      <path d="M182.76.85v42.59h-7.06V12.9l-14.78,18.74h-1.52l-14.72-18.68v30.48h-7.12V.85h6.45l16.18,20.62L176.37.85h6.39Z" class="cls-1"></path>
      <path d="M228.52,15.7c0,8.94-6.08,14.84-15.39,14.84h-12.71v12.9h-7.12V.85h19.83c9.31,0,15.39,5.9,15.39,14.84ZM221.46,15.7c0-5.05-3.47-8.33-8.7-8.33h-12.41v16.73h12.41c5.23,0,8.7-3.29,8.7-8.4Z" class="cls-1"></path>
      <path d="M253.22,26.22v17.22h-7.06v-17.22L229.43.85h8.46l11.8,18.62,12.17-18.62h8.58l-17.22,25.37Z" class="cls-1"></path>
    </g>
    <g>
      <path d="M39.36,67.18v18.07c-4.75,4.75-10.34,7-17.34,7-13.26,0-22.02-8.76-22.02-22.14s9.19-22.14,22.51-22.14c6.08,0,11.62,2.25,15.82,6.57l-4.56,4.56c-2.86-2.86-7.18-4.56-11.32-4.56-9.06,0-15.33,6.27-15.33,15.57s5.84,15.57,14.9,15.57c4.26,0,7.73-1.09,10.77-3.47v-8.76h-11.92v-6.27h18.49Z" class="cls-1"></path>
      <path d="M63.58,76.86h-8.64v14.54h-7.12v-42.59h19.95c9.13,0,15.09,5.6,15.09,14.05,0,7.06-4.2,12.11-11.01,13.57l12.96,14.97h-8.88l-12.35-14.54ZM67.71,55.38h-12.84v14.97h12.84c5.05,0,8.09-2.8,8.09-7.48s-3.04-7.48-8.09-7.48Z" class="cls-1"></path>
      <path d="M121.31,82.58h-22.87l-3.89,8.82h-7.67l19.1-42.59h7.91l19.04,42.59h-7.73l-3.89-8.82ZM101.18,76.13h17.4l-8.7-20.14-8.7,20.14Z" class="cls-1"></path>
      <path d="M182.76,48.81v42.59h-7.06v-30.54l-14.78,18.74h-1.52l-14.72-18.68v30.48h-7.12v-42.59h6.45l16.18,20.62,16.18-20.62h6.39Z" class="cls-1"></path>
      <path d="M228.52,63.66c0,8.94-6.08,14.84-15.39,14.84h-12.71v12.9h-7.12v-42.59h19.83c9.31,0,15.39,5.9,15.39,14.84ZM221.46,63.66c0-5.05-3.47-8.33-8.7-8.33h-12.41v16.73h12.41c5.23,0,8.7-3.29,8.7-8.4Z" class="cls-1"></path>
      <path d="M261.34,82.58h-22.88l-3.89,8.82h-7.67l19.1-42.59h7.91l19.04,42.59h-7.73l-3.89-8.82ZM241.2,76.13h17.4l-8.7-20.14-8.7,20.14Z" class="cls-1"></path>
    </g>
    <path d="M286.77,86.74c0,2.79-1.86,4.65-4.68,4.65s-4.68-1.86-4.68-4.65,1.86-4.65,4.68-4.65,4.68,1.83,4.68,4.65ZM285.44,86.74c0-2.06-1.3-3.42-3.36-3.42s-3.36,1.36-3.36,3.42,1.3,3.39,3.36,3.39,3.36-1.33,3.36-3.39ZM283.28,87.34l.9,1.69h-1.23l-.8-1.53h-.8v1.53h-1.1v-4.65h2.23c1.03,0,1.73.63,1.73,1.56,0,.63-.37,1.16-.93,1.4ZM281.35,85.42v1.1h1.16c.4,0,.63-.23.63-.56,0-.3-.23-.53-.63-.53h-1.16Z" class="cls-1"></path>
  </g>
</svg>