<svg viewBox="0 0 128.61 107.53" xmlns="http://www.w3.org/2000/svg" data-name="Layer 2" id="Layer_2">
  <defs>
    <style>
      .cls-1 {
        fill: #231f20;
      }
    </style>
  </defs>
  <g data-name="Layer 1" id="Layer_1-2">
    <g>
      <path d="M68.17,33.3v31.3c-8.22,8.22-17.91,12.11-30.03,12.11C15.18,76.71,0,61.53,0,38.36S15.91,0,38.99,0c10.54,0,20.13,3.9,27.4,11.38l-7.91,7.9c-4.95-4.96-12.43-7.9-19.6-7.9-15.7,0-26.55,10.85-26.55,26.97s10.12,26.97,25.82,26.97c7.38,0,13.38-1.9,18.65-6.01v-15.18h-20.65v-10.85h32.03Z" class="cls-1"></path>
      <path d="M114.27,69.38c8.33,3.06,12.96,8.85,12.96,16.55,0,13.17-10.96,21.59-27.71,21.59s-28.13-9.38-27.5-23.39h11.58c-.21,7.69,6.01,12.75,15.91,12.75s15.8-4.43,15.8-11.07-5.9-10.54-15.6-10.54c-17.28,0-28.24-10.12-28.24-25.92s11.69-26.24,27.81-26.24c5.48,0,10.43,1.26,14.12,3.47l6.64-8.11,8.54,6.53-7.28,8.43c4.43,5.16,6.22,9.8,6.22,15.91,0,9.27-4.64,16.22-13.28,20.02ZM115.75,49.37c0-9.27-6.43-15.49-16.22-15.49s-16.22,6.21-16.22,15.49,6.53,15.28,16.22,15.28,16.22-6.12,16.22-15.28Z" class="cls-1"></path>
    </g>
  </g>
</svg>