<svg width="26" height="27" viewBox="0 0 26 27" fill="none" xmlns="http://www.w3.org/2000/svg">
<path d="M26 13.3159C25.9959 16.4932 24.8302 19.5593 22.7224 21.9367C20.6145 24.3141 17.7101 25.8387 14.5562 26.2234C14.486 26.2313 14.4149 26.2243 14.3476 26.2028C14.2803 26.1812 14.2183 26.1457 14.1657 26.0984C14.1132 26.0512 14.0712 25.9933 14.0427 25.9287C14.0141 25.864 13.9995 25.7941 14 25.7234V16.3159H17C17.1371 16.3162 17.2728 16.2883 17.3986 16.234C17.5245 16.1796 17.6378 16.1 17.7316 16C17.8254 15.9 17.8976 15.7818 17.9438 15.6527C17.9899 15.5236 18.0091 15.3864 18 15.2496C17.9779 14.9925 17.8593 14.7532 17.668 14.58C17.4766 14.4068 17.2268 14.3124 16.9687 14.3159H14V11.3159C14 10.7855 14.2107 10.2767 14.5858 9.90167C14.9609 9.5266 15.4696 9.31589 16 9.31589H18C18.1371 9.31619 18.2728 9.2883 18.3986 9.23395C18.5245 9.17961 18.6378 9.09996 18.7316 8.99997C18.8254 8.89998 18.8976 8.78177 18.9438 8.65269C18.9899 8.52362 19.0091 8.38642 19 8.24964C18.9779 7.99205 18.8589 7.75244 18.667 7.57915C18.4752 7.40585 18.2247 7.31177 17.9662 7.31589H16C14.9391 7.31589 13.9217 7.73731 13.1716 8.48746C12.4214 9.2376 12 10.255 12 11.3159V14.3159H9C8.86291 14.3156 8.72722 14.3435 8.60137 14.3978C8.47551 14.4522 8.36217 14.5318 8.2684 14.6318C8.17462 14.7318 8.1024 14.85 8.05622 14.9791C8.01005 15.1082 7.99091 15.2453 8 15.3821C8.02211 15.6397 8.1411 15.8793 8.33296 16.0526C8.52481 16.2259 8.77525 16.32 9.03375 16.3159H12V25.7259C12.0004 25.7964 11.9859 25.8663 11.9574 25.9308C11.9289 25.9954 11.8871 26.0532 11.8347 26.1004C11.7823 26.1476 11.7204 26.1832 11.6533 26.2049C11.5861 26.2265 11.5151 26.2336 11.445 26.2259C8.20669 25.8315 5.23445 24.2358 3.11659 21.7545C0.998727 19.2732 -0.110398 16.0872 0.00874662 12.8271C0.258747 6.07714 5.72625 0.589636 12.4812 0.327136C14.2301 0.259394 15.9747 0.545075 17.6106 1.16709C19.2465 1.78911 20.7401 2.73468 22.0022 3.94726C23.2642 5.15983 24.2688 6.61449 24.9557 8.22423C25.6426 9.83397 25.9978 11.5657 26 13.3159Z" fill="#737373"/>
</svg>
