<svg width="1290" height="389" viewBox="0 0 1290 389" fill="none" xmlns="http://www.w3.org/2000/svg">
<path d="M1390.27 545.793C1397.59 473.231 1398.83 402.355 1376.61 348.788C1354.34 295.412 1305.68 261.118 1235.22 271.741C1151.07 284.453 1045.16 358.122 970.8 350.774C922.686 345.993 898.224 308.084 871.979 275.148C845.659 242.139 811.187 212.028 754.904 225.195C653.99 248.822 535.31 398.052 438.391 410.993C374.479 419.457 351.321 364.282 311.976 334.026C262.152 295.807 177.833 298.16 88.5089 340.344C-0.815319 382.528 -93.3439 463.759 -156.766 555.464" stroke="#FAFAFA" stroke-miterlimit="10"/>
<path d="M1396.06 531.771C1402.95 459.947 1403.27 390.016 1380.46 337.497C1366.76 305.749 1343.53 280.869 1311.94 268.419C1291.33 260.257 1267.03 257.512 1239.59 261.424C1156.21 273.501 1051.59 344.499 977.053 339.29C950.57 337.418 930.725 326.525 913.755 311.498C899.381 298.787 887.065 283.226 874.511 268.359C856.975 247.445 836.422 227.049 809.427 218.182C794.488 213.263 777.636 211.797 758.312 215.557C720.354 222.825 679.979 247.892 638.98 276.75C579.869 318.207 519.088 367.531 463.148 383.354C457.144 385.114 451.263 386.298 445.347 387.216C380.849 396.729 355.868 346.72 316.234 320.816C277.276 295.577 218.717 294.225 152.342 315.574C133.137 321.768 113.333 329.926 93.1633 339.81C56.8479 357.732 19.8428 381.468 -15.6154 409.039C-68.4347 449.947 -117.75 499.16 -156.362 550.993" stroke="#FAFAFA" stroke-miterlimit="10"/>
<path d="M1402.04 517.705C1408.32 446.663 1407.78 377.751 1384.54 325.97C1370.57 294.65 1347.33 270.228 1315.89 257.925C1295.36 249.836 1271.37 246.929 1244.04 250.723C1161.54 262.047 1058.26 330.638 983.577 327.378C956.782 326.125 936.153 316.782 918.406 302.848C903.296 291.037 890.326 275.994 877.465 261.289C859.315 240.7 838.612 220.157 812.086 210.36C797.42 205.012 781.072 202.882 762.027 205.757C725.084 211.239 685.852 233.486 645.765 259.762C588.001 297.44 527.42 343.251 470.717 359.252C464.638 360.938 458.715 362.314 452.799 363.233C387.756 373.601 361.102 328.906 320.948 307.592C281.702 286.706 223.966 289.176 157.86 313.106C138.683 320.024 118.757 328.757 98.4653 339.217C61.871 358.024 24.3273 382.159 -11.8137 409.524C-65.5819 450.196 -116.053 497.58 -155.384 546.388" stroke="#FAFAFA" stroke-miterlimit="10"/>
<path d="M1407.91 503.756C1413.75 433.453 1412.29 365.486 1388.5 314.561C1374.23 283.861 1351.1 259.778 1319.8 247.623C1299.42 239.681 1275.62 236.73 1248.53 240.288C1166.73 250.903 1064.69 317.014 989.986 315.584C962.837 315.143 941.466 307.158 922.983 294.124C907.137 283.214 893.703 268.643 880.228 254.263C861.464 233.999 840.536 213.235 814.555 202.582C800.086 196.732 784.052 193.983 765.668 195.882C729.664 199.505 691.842 218.962 652.475 242.699C595.867 276.644 535.719 318.707 478.211 335.077C472.132 336.763 466.093 338.257 460.061 339.293C394.357 350.636 365.955 311.18 325.588 294.294C285.978 277.687 229.216 284.126 163.113 310.609C143.964 318.25 123.875 327.75 103.502 338.594C66.5125 358.405 28.546 382.82 -8.20252 410.053C-62.9949 450.416 -114.546 496.044 -154.482 541.71" stroke="#FAFAFA" stroke-miterlimit="10"/>
<path d="M1413.78 489.808C1419 420.287 1416.69 353.338 1392.54 303.225C1378.07 273.028 1354.86 249.328 1323.72 237.321C1303.41 229.453 1279.8 226.457 1253.13 229.734C1172.02 239.64 1071.32 303.346 996.47 303.863C969.007 304.042 946.969 297.489 927.593 285.666C911.127 275.538 896.923 261.602 882.95 247.43C863.572 227.491 842.609 206.461 816.907 194.922C802.827 188.526 786.99 185.274 769.192 186.126C734.127 187.889 697.483 204.792 659.185 225.637C603.924 255.803 543.977 294.353 485.629 310.827C479.434 312.631 473.32 314.052 467.364 315.162C401.19 327.435 370.965 293.145 330.192 280.73C290.294 268.477 234.43 278.81 168.405 307.92C149.169 316.402 129.149 326.434 108.578 337.779C71.3102 358.476 32.689 383.408 -4.62632 410.317C-60.4427 450.37 -112.999 494.317 -153.73 536.884" stroke="#FAFAFA" stroke-miterlimit="10"/>
<path d="M1419.76 475.741C1424.48 406.884 1421.31 340.954 1396.63 291.698C1381.95 262.002 1358.62 238.878 1327.67 226.826C1307.44 219.032 1284.02 215.991 1257.66 219.106C1177.32 228.378 1077.79 289.529 1003 291.95C975.103 292.867 952.398 287.746 932.286 276.824C915.084 267.596 900.224 254.177 885.945 240.167C866.028 220.627 844.765 199.302 819.608 186.907C805.725 180.009 790.392 176.093 773.139 176.089C739.014 175.992 703.589 190.15 666.202 208.411C612.172 234.917 552.467 269.764 493.43 286.489C487.16 288.219 481.006 289.831 474.933 291.06C408.214 304.189 376.125 275.256 335.139 267.268C294.761 259.413 239.987 273.597 174.081 305.142C154.872 314.347 134.69 325.146 114.037 336.875C76.4905 358.457 37.3306 383.788 -0.476393 410.447C-57.1258 450.146 -110.954 492.382 -152.404 531.925" stroke="#FAFAFA" stroke-miterlimit="10"/>
<path d="M1425.63 461.793C1429.92 393.675 1425.71 328.808 1400.59 280.289C1385.72 251.095 1362.31 228.355 1331.58 216.524C1311.5 208.878 1288.27 205.793 1262.14 208.672C1182.5 217.234 1084.3 275.98 1009.48 280.231C981.158 281.886 957.785 278.196 936.938 268.174C919.115 259.73 903.56 247.019 888.783 233.216C868.252 214.001 846.839 192.528 822.036 179.322C808.426 171.996 793.406 167.46 776.738 166.408C743.629 164.524 709.346 175.863 672.871 191.542C620.113 214.195 560.684 245.603 500.883 262.506C494.613 264.236 488.383 265.775 482.195 267.121C414.815 281.225 380.978 257.532 339.587 254.015C298.921 250.513 244.854 268.637 179.217 302.764C160.037 312.692 139.732 324.067 118.957 336.372C81.0157 358.957 41.433 384.569 2.94328 411.021C-54.7303 450.411 -109.639 490.892 -151.809 527.41" stroke="#FAFAFA" stroke-miterlimit="10"/>
<path d="M1431.53 447.653C1435.21 380.317 1430.14 316.469 1404.67 268.762C1389.49 240.188 1366.19 217.787 1335.54 206.03C1315.53 198.457 1292.49 195.328 1266.79 197.926C1188.03 205.735 1090.85 262.237 1016.08 268.392C987.329 270.785 963.405 268.409 941.665 259.598C923.106 252.054 907.013 239.742 891.812 226.219C870.668 207.329 849.145 185.517 824.771 171.572C811.358 163.745 796.767 158.471 780.529 156.68C748.359 152.937 715.486 161.486 679.732 174.626C628.205 193.619 569.092 221.397 508.452 238.404C502.066 240.252 495.836 241.791 489.648 243.137C421.723 258.097 386.022 239.762 344.418 240.672C303.272 241.568 250.295 263.543 184.66 300.223C165.392 310.992 145.156 322.898 124.068 335.822C85.8483 359.293 45.6862 385.495 6.62965 411.623C-51.9928 450.778 -108.172 489.548 -150.947 522.923" stroke="#FAFAFA" stroke-miterlimit="10"/>
<path d="M1437.4 433.704C1440.57 367.032 1434.66 304.203 1408.64 257.352C1393.18 229.206 1369.87 207.263 1339.45 195.727C1319.63 188.11 1296.75 185.128 1271.2 187.416C1193.14 194.517 1097.17 248.731 1022.49 256.597C993.424 259.61 968.642 258.71 946.241 250.873C927.062 244.112 910.198 232.435 894.5 219.119C872.741 200.554 851.068 178.595 827.089 163.646C813.949 155.391 799.671 149.497 784.019 146.658C752.788 141.055 721.134 146.859 686.292 157.416C636.037 172.557 577.124 196.822 515.795 214.08C509.409 215.929 503.064 217.585 496.759 219.05C428.249 235.058 390.533 221.933 348.907 227.226C307.206 232.445 255.394 258.345 189.878 297.459C170.638 308.952 150.239 321.625 129.07 334.933C90.571 359.29 49.8701 385.891 10.1308 411.813C-49.5157 450.658 -106.776 487.672 -150.27 518.023" stroke="#FAFAFA" stroke-miterlimit="10"/>
<path d="M1443.27 419.756C1445.89 353.94 1438.98 291.982 1412.61 245.943C1396.95 218.299 1373.56 196.739 1343.29 185.351C1323.62 177.881 1300.97 174.663 1275.61 176.907C1198.24 183.299 1103.6 235.107 1028.78 244.921C999.288 248.672 973.839 249.204 950.586 242.386C930.671 236.525 913.227 225.439 897.031 212.33C874.659 194.09 852.835 171.983 829.326 156.105C816.383 147.347 802.535 140.715 787.502 137.094C757.212 129.631 726.776 132.689 692.845 140.663C643.821 152.144 585.226 172.779 523.132 190.215C516.671 191.989 510.21 193.764 503.98 195.303C434.925 212.167 395.23 204.517 353.431 214.046C311.135 223.781 260.412 253.531 195.09 295.154C175.878 307.37 155.357 320.618 134.065 334.502C95.2876 359.745 54.048 386.744 13.7012 412.534C-46.9694 451.07 -105.31 486.329 -149.525 513.655" stroke="#FAFAFA" stroke-miterlimit="10"/>
<path d="M1449.25 405.689C1451.37 340.538 1443.6 279.599 1416.76 234.49C1400.8 207.466 1377.4 186.363 1347.31 174.93C1327.73 167.535 1305.26 164.272 1280.33 166.235C1203.73 171.992 1110.31 221.512 1035.5 232.964C1005.65 237.527 979.458 239.417 955.544 233.573C934.893 228.613 916.911 217.925 900.292 205.097C877.306 187.182 855.257 164.854 832.293 148.12C819.622 138.934 806.203 131.564 791.64 127.013C762.29 117.69 733.148 118.076 700.053 123.394C652.301 131.022 593.907 148.146 531.165 165.64C524.588 167.533 518.127 169.308 511.706 170.891C441.99 188.729 400.355 186.364 358.419 200.393C315.643 214.526 266.009 248.127 200.69 292.303C181.39 305.359 160.822 319.258 139.449 333.525C100.277 359.771 58.4985 387.17 17.5848 412.634C-44.0347 450.935 -103.53 484.365 -148.465 508.667" stroke="#FAFAFA" stroke-miterlimit="10"/>
<path d="M1455.12 391.74C1456.62 327.372 1448 267.451 1420.73 223.08C1404.57 196.558 1381.09 175.839 1351.23 164.628C1331.71 157.306 1309.52 154.073 1284.81 155.799C1208.91 160.848 1116.58 208.198 1041.98 221.243C1011.71 226.544 984.846 229.866 960.08 225.041C938.809 220.863 920.057 210.81 903.014 198.263C879.49 180.747 857.331 158.079 834.721 140.533C822.248 130.845 809.217 122.929 795.24 117.33C766.829 106.147 738.906 103.788 706.723 106.523C660.127 110.417 602.24 123.866 538.618 141.656C532.041 143.549 525.505 145.25 519.043 147.025C448.782 165.719 405.052 168.948 363.058 187.094C319.646 205.935 271.143 243.195 206.134 289.761C186.862 303.541 166.247 318.088 144.676 332.858C105.225 359.989 62.9082 387.786 21.3869 413.119C-41.2567 451.11 -101.833 482.785 -147.488 504.062" stroke="#FAFAFA" stroke-miterlimit="10"/>
<path d="M1461.1 377.674C1462.17 314.044 1452.62 255.068 1424.81 211.554C1408.45 185.533 1384.96 165.272 1355.18 154.134C1335.74 146.886 1313.74 143.608 1289.34 145.172C1214.32 149.468 1123.02 194.574 1048.39 209.45C1017.68 215.489 990.159 220.242 964.656 216.318C942.649 213.04 923.317 203.578 905.818 191.046C881.679 173.855 859.295 150.966 837.155 132.49C824.879 122.3 812.277 113.646 798.845 107.191C771.299 94.0743 744.67 89.0437 713.398 89.1954C668.074 89.2376 610.388 99.174 546.077 117.216C539.425 119.035 532.848 120.928 526.271 122.82C455.539 142.445 409.713 151.268 367.663 173.531C323.655 196.888 276.357 237.88 211.351 286.999C191.992 301.62 171.254 316.743 149.678 331.97C109.948 359.987 67.092 388.183 24.888 413.309C-38.7797 450.991 -100.436 480.91 -146.811 499.163" stroke="#FAFAFA" stroke-miterlimit="10"/>
<path d="M1466.89 363.652C1467.34 300.804 1456.94 242.847 1428.78 200.144C1412.1 174.744 1388.65 154.748 1359.09 143.832C1339.81 136.731 1317.99 133.409 1293.94 134.619C1219.62 138.205 1129.6 181.097 1054.99 197.611C1023.74 204.506 995.778 210.455 969.383 207.741C946.64 205.364 926.653 196.419 908.731 184.168C883.979 167.301 861.444 144.265 839.774 124.859C827.77 114.241 815.482 104.967 802.595 97.6557C776.104 82.5611 750.577 74.9032 720.218 72.472C676.125 68.8538 618.755 75.16 553.605 93.3056C546.837 95.2427 540.26 97.1356 533.683 99.0284C462.29 119.627 414.485 133.926 372.453 160.38C327.809 188.444 281.641 233.095 216.754 284.649C197.423 299.993 176.638 315.765 154.864 331.494C114.739 360.515 71.3449 389.11 28.7651 413.867C-35.8515 451.314 -98.6632 479.404 -145.642 494.513" stroke="#FAFAFA" stroke-miterlimit="10"/>
<path d="M1472.76 349.704C1472.71 287.52 1461.34 230.7 1432.74 188.735C1415.8 163.763 1392.22 144.343 1362.93 133.456C1343.72 126.429 1322.09 123.062 1298.27 124.036C1224.73 126.987 1135.8 167.71 1061.32 185.743C1029.72 193.45 1001.02 200.757 973.884 198.944C950.521 197.35 929.88 188.921 911.419 177.068C886.052 160.527 863.408 137.152 842.167 117.007C830.361 105.888 818.502 95.8756 806.16 87.708C780.609 70.7535 756.301 60.3502 726.968 55.2179C684.148 47.7475 627.054 50.6153 561.139 68.9384C554.371 70.8756 547.603 72.8128 540.985 74.8974C469.048 96.3525 419.222 116.319 376.942 146.934C331.778 179.588 286.74 227.898 222.047 281.961C202.744 298.027 181.796 314.567 159.941 330.68C119.537 360.586 75.6041 389.58 32.3416 414.131C-33.2991 451.268 -97.1912 477.603 -144.89 489.688" stroke="#FAFAFA" stroke-miterlimit="10"/>
<path d="M1478.75 335.637C1478.14 274.31 1465.97 218.317 1436.83 177.208C1419.68 152.738 1396.1 133.775 1366.77 123.08C1347.63 116.126 1326.2 112.716 1302.69 113.527C1229.83 115.769 1142.01 154.322 1067.62 174.067C1035.58 182.512 1006.14 191.177 978.345 190.338C954.245 189.644 933.025 181.807 914.182 170.043C888.202 153.826 865.407 130.304 844.636 109.229C833.218 97.5637 821.672 86.9313 809.8 77.8337C785.189 59.0194 762.174 45.9443 733.679 38.1554C692.13 26.8328 635.237 26.1885 568.633 44.7628C561.79 46.6263 554.981 48.7553 548.288 50.7662C475.765 73.2694 423.959 98.7113 381.622 133.444C335.897 170.879 291.915 222.775 227.34 279.272C207.949 296.18 187.071 313.251 164.902 329.983C124.103 360.893 79.7474 390.167 35.8773 414.586C-30.7874 451.414 -95.7598 475.994 -144.254 484.98" stroke="#FAFAFA" stroke-miterlimit="10"/>
<path d="M1484.61 321.689C1483.51 261.026 1470.36 206.17 1440.79 165.799C1423.45 141.831 1399.79 123.252 1370.68 112.778C1351.69 105.972 1330.45 102.517 1307.29 102.973C1235.2 104.581 1148.47 140.964 1074.22 162.229C1041.83 171.486 1011.64 181.509 983.072 181.762C958.236 181.969 936.361 174.648 917.095 163.165C890.501 147.273 867.481 123.529 847.064 101.643C835.843 89.476 824.802 78.1792 813.4 68.1518C789.844 47.3594 767.932 31.657 740.348 21.2851C699.955 6.22846 643.454 2.0276 576.011 20.7058C569.168 22.5692 562.284 24.6245 555.55 26.8273C482.482 50.1866 428.846 81.2518 386.187 120.072C340.016 162.171 297.164 217.725 232.592 276.775C213.23 294.406 192.188 312.245 169.938 329.361C128.861 361.156 83.9252 391.021 39.4883 415.116C-28.1254 451.708 -94.2532 474.458 -143.468 480.42" stroke="#FAFAFA" stroke-miterlimit="10"/>
<path d="M1490.48 307.741C1488.75 247.86 1474.87 193.904 1444.83 154.464C1427.18 131.115 1403.62 112.875 1374.59 102.475C1355.8 95.6244 1334.75 92.1251 1311.77 92.5375C1240.5 93.3184 1154.83 127.723 1080.58 150.626C1047.65 160.739 1016.91 172.076 987.608 173.23C962.036 174.337 939.622 167.415 919.742 156.257C892.609 140.764 869.364 116.799 849.417 93.9828C838.469 81.3874 827.318 69.7513 816.999 58.4689C795.194 34.9898 773.69 17.3688 747.017 4.41405C707.971 -14.4211 651.596 -22.2079 583.464 -3.27841C576.505 -1.29684 569.621 0.758475 562.771 3.07938C489.042 27.4131 433.502 64.0278 390.786 106.965C344.17 153.727 302.257 212.985 237.92 274.352C218.66 292.779 197.497 311.193 175.049 328.811C133.693 361.492 88.219 391.756 43.0994 415.644C-25.5384 451.928 -92.7466 472.923 -142.681 475.86" stroke="#FAFAFA" stroke-miterlimit="10"/>
<path d="M1496.46 293.673C1494.31 234.531 1479.38 181.638 1448.91 142.936C1431.06 120.089 1407.31 102.351 1378.62 92.0537C1359.9 85.277 1339.04 81.7333 1316.49 81.865C1245.92 81.9372 1161.49 114.32 1087.3 138.668C1054.01 149.594 1022.53 162.288 992.375 164.461C966.183 166.351 943.074 160.138 922.812 149.068C895.066 133.9 871.711 109.596 852.192 86.0415C841.442 72.9442 831.143 60.2895 820.831 48.5496C799.27 23.9194 779.795 2.72609 753.919 -12.6935C716.145 -35.3808 660.045 -46.6061 591.149 -27.4991C584.115 -25.5912 577.19 -23.3441 570.34 -21.0232C496.066 4.16674 438.696 46.4048 395.616 93.622C348.555 145.047 307.698 207.89 243.363 271.81C224.016 291.078 202.73 310.068 180.276 328.144C138.526 361.828 92.6287 392.372 46.9015 416.128C-22.6445 451.984 -90.9736 471.416 -141.703 471.254" stroke="#FAFAFA" stroke-miterlimit="10"/>
<path d="M1502.26 279.652C1499.48 221.292 1483.82 169.3 1452.81 131.453C1434.76 109.108 1410.92 91.7543 1382.38 81.6044C1363.81 74.9752 1343.14 71.3872 1320.83 71.2826C1251.02 70.7198 1167.69 100.932 1093.63 126.801C1059.88 138.656 1027.77 152.591 996.951 155.738C970.024 158.528 946.26 152.832 925.575 142.043C897.215 127.2 873.709 102.748 854.661 78.264C844.183 64.7386 834.238 51.272 824.471 38.6759C803.966 12.0676 785.594 -11.7528 760.629 -29.7554C724.011 -56.1768 668.419 -71.0767 598.567 -51.7477C591.533 -49.8399 584.417 -47.5483 577.452 -45.1093C502.708 -18.9895 443.433 28.7982 400.03 80.1031C352.599 136.265 312.681 202.811 248.465 269.166C229.146 289.158 207.813 308.797 185.162 327.374C143.133 361.944 96.5809 393.005 50.2869 416.437C-20.208 452.057 -89.6927 469.659 -141.142 466.474" stroke="#FAFAFA" stroke-miterlimit="10"/>
<path d="M1508.24 265.585C1504.96 207.89 1488.33 157.034 1456.96 120C1438.52 98.2009 1414.88 81.26 1386.41 71.1838C1367.92 64.6284 1347.44 60.996 1325.35 60.6552C1256.24 59.3836 1174.16 87.5738 1100.04 115.007C1065.93 127.674 1033.08 142.966 1001.41 147.132C973.748 150.823 949.33 145.644 928.338 135.017C899.479 120.381 875.633 95.8261 857.129 70.4857C846.849 56.4585 837.408 42.3276 828.111 28.8016C808.546 0.333448 791.467 -26.1588 767.338 -46.818C732.067 -77.0178 676.601 -95.5037 606.061 -75.9235C598.911 -73.8976 591.795 -71.606 584.83 -69.167C509.425 -42.0728 448.436 11.2201 404.786 66.6865C357.025 127.394 318.046 197.643 253.949 266.432C234.542 287.265 213.278 307.436 190.43 326.515C148.121 361.971 101.031 393.43 54.1295 416.73C-17.3895 452.041 -87.9545 467.887 -140.124 461.677" stroke="#FAFAFA" stroke-miterlimit="10"/>
<path d="M1514.11 251.638C1510.4 194.68 1492.73 144.888 1460.93 108.591C1442.29 87.2942 1418.56 70.737 1390.33 60.8821C1371.91 54.4004 1351.69 50.7973 1329.95 50.1021C1261.73 48.0775 1180.63 74.2159 1106.64 103.168C1072.06 116.765 1038.59 133.298 1006.18 138.364C977.78 142.956 952.898 138.249 931.217 127.874C901.744 113.563 877.863 88.7422 859.639 62.5163C849.556 47.9873 840.619 33.1919 831.867 18.8097C813.357 -11.6364 797.497 -40.8741 774.164 -63.9981C740.281 -98.1683 684.975 -119.974 613.671 -100.217C606.445 -98.2644 599.405 -95.8991 592.207 -93.2239C516.258 -65.2735 453.44 -6.3573 409.466 53.1968C361.261 118.567 323.22 192.52 259.318 263.818C239.939 285.374 218.512 306.311 195.582 325.774C152.879 362.234 105.366 393.974 57.7812 417.067C-14.7618 452.069 -86.4071 466.161 -139.297 456.925" stroke="#FAFAFA" stroke-miterlimit="10"/>
<path d="M1519.97 237.688C1515.64 181.513 1497.24 132.621 1464.89 97.1813C1446.06 76.3861 1422.21 60.4045 1394.16 50.5052C1375.89 44.1709 1355.8 40.4497 1334.37 39.5921C1266.84 36.8587 1186.98 60.9747 1113.05 91.3734C1078.04 105.708 1043.9 123.673 1010.72 129.832C981.579 135.324 956.043 131.134 933.939 121.039C903.853 107.053 879.746 82.0113 862.067 54.9292C852.256 39.9721 843.673 24.3649 835.466 9.1265C818.012 -23.2976 803.255 -55.1626 780.834 -80.8695C748.222 -118.892 693.117 -144.21 621.048 -124.275C613.823 -122.323 606.591 -119.913 599.469 -117.164C522.859 -88.2394 458.252 -23.8917 413.99 40.0157C365.53 110.005 328.429 187.661 264.454 261.438C245.103 283.717 223.554 305.23 200.502 325.269C157.52 362.614 109.352 394.871 61.3922 417.595C-12.0998 452.362 -84.9006 464.624 -138.51 452.364" stroke="#FAFAFA" stroke-miterlimit="10"/>
<path d="M1525.96 223.622C1521.2 168.185 1501.75 120.356 1469.05 85.728C1450.02 65.4346 1426.09 49.8368 1398.27 40.1586C1380.07 33.8981 1360.17 30.1325 1339.04 29.1123C1272.28 25.744 1193.6 47.7639 1119.61 79.7268C1084.21 95.0654 1049.36 114.196 1015.44 121.255C985.686 127.53 959.454 124.049 936.968 114.043C906.343 100.456 882.011 75.1927 864.802 47.1806C855.188 31.7217 847.11 15.4503 839.257 -0.599992C822.859 -35.0021 809.279 -69.4207 787.694 -97.7843C756.314 -139.467 701.525 -168.416 628.692 -148.303C621.351 -146.232 614.119 -143.823 606.806 -141.029C529.726 -111.175 463.214 -41.2774 418.704 26.7914C369.8 101.444 333.829 182.759 269.897 258.897C250.534 282.091 228.863 304.18 205.613 324.72C162.352 362.951 113.646 395.607 65.0032 418.125C-9.51285 452.582 -83.394 463.089 -137.608 447.686" stroke="#FAFAFA" stroke-miterlimit="10"/>
<path d="M1531.82 209.674C1526.45 155.019 1506.26 108.091 1473.02 74.3189C1453.67 54.6455 1429.78 39.3133 1402.1 29.7826C1383.98 23.5958 1364.46 19.7414 1343.57 18.485C1277.51 14.4079 1199.95 34.5236 1126.14 67.8145C1090.38 83.9649 1054.79 104.454 1020.21 112.487C989.717 119.663 962.947 116.58 939.922 106.973C908.683 93.7107 884.242 68.1084 867.461 39.3582C858.12 23.4712 850.355 6.57969 843.088 -10.5186C827.629 -46.7806 815.269 -83.9446 794.711 -115.009C764.603 -160.544 710.09 -192.931 636.493 -172.641C629.152 -170.57 621.729 -168.116 614.491 -165.249C536.75 -134.42 468.64 -59.136 423.691 13.1387C374.457 92.3368 339.31 177.473 275.572 256.119C256.237 280.036 234.519 302.775 211.072 323.817C167.416 363.051 118.287 395.987 69.0369 418.373C-6.50325 452.521 -81.4647 461.273 -136.398 442.846" stroke="#FAFAFA" stroke-miterlimit="10"/>
<path d="M1537.73 195.533C1531.85 141.543 1510.7 95.752 1477.02 62.7179C1457.48 43.5464 1433.58 28.6716 1405.98 19.2146C1388.05 12.9835 1368.61 9.20285 1348.02 7.78392C1282.73 3.07183 1206.42 21.1651 1132.47 55.9465C1096.24 73.0268 1060.14 94.6374 1024.6 103.808C993.367 111.884 965.942 109.318 942.419 99.9176C910.567 86.9807 885.975 61.2308 869.473 31.5951C860.33 15.2062 853.069 -2.34954 846.346 -20.3041C832.135 -58.5884 820.685 -98.3354 801.039 -131.983C772.087 -181.252 717.891 -217.269 643.53 -196.801C636.114 -194.805 628.65 -192.159 621.412 -189.292C543.126 -157.607 473.187 -76.6989 427.99 -0.262724C378.618 83.4362 344.294 172.394 280.484 253.519C261.177 278.159 239.22 301.591 215.767 323.091C171.833 363.211 122.165 396.546 72.2317 418.726C-4.25736 452.638 -80.3742 459.56 -136.028 438.109" stroke="#FAFAFA" stroke-miterlimit="10"/>
<path d="M1543.6 181.585C1533.37 97.5973 1484.42 34.2775 1409.9 8.91193C1335.37 -16.4536 1236.05 -3.31932 1139.03 44.2994C1102.33 62.3096 1065.61 85.1601 1029.32 95.2311C954.115 116.26 900.004 76.8491 872.208 23.846C844.487 -29.0834 835.696 -95.8953 808.016 -149.016C780.41 -202.064 726.415 -241.593 651.29 -220.948C563.699 -196.768 482.597 -101.776 432.82 -13.6059C383.003 74.7563 349.734 167.299 286.118 250.933C230.571 323.937 153.738 385.562 76.2246 419.165C-1.28852 452.768 -78.4857 457.935 -134.86 433.459" stroke="#FAFAFA" stroke-miterlimit="10"/>
<path d="M1535.45 164.783C1524.48 82.1531 1475.28 20.4419 1401.04 -3.71375C1326.8 -27.8694 1228.47 -14.6915 1132.55 33.3102C1095.16 52.0292 1057.69 76.6951 1021.04 88.0355C946.684 111.056 892.876 74.4928 864.04 25.1056C835.279 -24.2078 824.458 -87.4473 795.606 -138.472C766.46 -190.25 713.514 -231.3 638.912 -212.691C552.267 -190.829 469.866 -98.2707 418.833 -10.1734C367.801 77.9239 334.936 171.559 274.226 254.335C221.708 325.906 148.292 385.551 74.1702 419.005C0.0488411 452.458 -74.5804 459.217 -130.031 436.806" stroke="#FAFAFA" stroke-miterlimit="10"/>
<path d="M1527.11 148.024C1515.36 66.9446 1465.95 6.65011 1392.04 -16.4876C1318.13 -39.6253 1220.63 -26.0937 1125.89 22.3647C1087.68 41.9106 1049.77 68.2295 1012.76 80.8391C939.443 105.807 885.748 72.1358 855.947 26.4384C825.955 -19.2147 813.22 -79.0001 783.313 -128.047C752.51 -178.437 700.77 -221.317 626.575 -204.627C540.917 -185.274 457.135 -94.766 404.928 -7.12544C352.721 80.5151 320.144 175.36 262.532 257.234C213.233 327.327 142.927 385.156 72.1972 418.46C1.3925 451.69 -70.5936 460.115 -125.12 439.769" stroke="#FAFAFA" stroke-miterlimit="10"/>
<path d="M1518.97 131.222C1506.35 51.6183 1456.7 -7.06761 1383.23 -29.3054C1309.76 -51.5432 1213.05 -37.4661 1119.41 11.3753C1080.4 31.748 1042.04 59.7199 1004.48 73.6432C932.128 100.485 878.811 69.735 847.779 27.6979C816.746 -14.3392 802.098 -70.6705 770.944 -117.695C738.559 -166.623 687.95 -211.407 614.238 -196.562C529.451 -179.6 444.403 -91.2608 391.022 -4.07696C337.641 83.1069 305.542 179.117 250.796 260.325C204.683 328.675 137.712 384.909 70.1834 418.107C2.7705 451.188 -66.5319 461.087 -120.251 442.924" stroke="#FAFAFA" stroke-miterlimit="10"/>
<path d="M1510.74 114.345C1497.46 36.1737 1447.41 -21.051 1374.23 -42.0789C1301.05 -63.1069 1205.17 -48.6762 1112.74 0.430146C1072.92 21.6297 1034.23 51.1365 996.011 66.4916C924.737 95.0884 871.492 67.4228 839.304 29.1197C807.116 -9.18328 790.553 -62.0604 758.268 -107.181C724.268 -154.912 674.783 -201.144 601.518 -188.409C517.602 -173.838 431.406 -87.785 376.734 -0.939771C322.138 85.9792 290.6 182.771 238.72 263.313C195.751 330.112 131.965 384.602 67.8283 417.651C3.69127 450.7 -62.9272 462.073 -115.838 446.095" stroke="#FAFAFA" stroke-miterlimit="10"/>
<path d="M1502.48 97.6608C1488.34 20.9653 1438.15 -34.7689 1365.37 -54.7052C1292.6 -74.6414 1197.56 -59.857 1106.34 -10.4858C1065.71 11.5406 1026.51 42.6266 987.923 59.251C917.729 89.6032 864.556 65.0216 831.327 30.3345C798.099 -4.35255 779.316 -53.613 746.091 -96.8735C710.433 -143.217 662.114 -191.087 589.372 -180.389C506.403 -168.135 418.791 -84.3983 363.095 2.13765C307.324 88.5999 276.19 186.484 227.251 266.434C187.351 331.608 126.942 384.31 66.1968 417.209C5.45152 450.109 -58.599 463.074 -110.511 449.234" stroke="#FAFAFA" stroke-miterlimit="10"/>
<path d="M1494.26 80.7846C1479.34 5.63911 1428.93 -48.6784 1356.37 -67.4785C1283.81 -86.2786 1189.75 -70.9931 1099.68 -21.4308C1058.23 1.42253 1018.7 34.0434 979.527 52.1733C910.454 84.0889 857.503 62.7389 823.043 31.7122C788.659 0.759167 767.962 -45.0471 733.606 -86.4034C696.176 -131.24 649.253 -180.985 576.844 -172.28C494.745 -162.417 405.868 -80.8487 348.882 5.34867C291.896 91.546 261.248 190.138 215.249 269.496C178.459 332.853 121.345 384.151 63.9168 416.827C6.48817 449.503 -54.8034 464.016 -105.908 452.36" stroke="#FAFAFA" stroke-miterlimit="10"/>
<path d="M1486.11 63.9809C1470.33 -9.68849 1419.79 -62.5155 1347.56 -80.2976C1275.32 -98.0797 1182.14 -82.1749 1093.2 -32.4215C1050.94 -8.74134 1011.01 25.3407 971.363 44.8579C903.527 78.219 850.491 60.2629 815.066 32.9259C779.567 5.51511 756.724 -36.6007 721.313 -75.979C682.226 -119.428 636.393 -170.885 564.582 -164.143C483.429 -156.597 393.328 -77.3891 335.052 8.46965C276.776 94.3284 246.804 193.584 203.514 272.586C169.834 334.126 116.056 383.829 61.9031 416.473C7.86629 449 -50.7821 465.179 -101.038 455.514" stroke="#FAFAFA" stroke-miterlimit="10"/>
<path d="M1477.77 47.2229C1461.32 -25.0147 1410.46 -76.3069 1338.63 -92.9972C1266.8 -109.688 1174.4 -93.2373 1086.61 -43.2927C1043.54 -18.7857 1003.4 16.713 962.967 37.7802C896.293 72.5129 843.247 58.0246 806.783 34.3036C770.127 10.6269 748.424 -31.2979 708.828 -65.5089C664.492 -103.908 623.417 -160.666 552.054 -156.033C471.847 -150.805 380.406 -73.8395 321.03 11.6363C261.655 97.112 231.977 197.12 191.779 275.678C161.093 335.519 110.65 383.626 60.0052 416.003C9.24434 448.497 -46.6044 466.032 -96.0522 458.551" stroke="#FAFAFA" stroke-miterlimit="10"/>
<path d="M1469.62 30.4208C1452.32 -40.3407 1401.25 -90.2161 1329.7 -105.697C1258.2 -121.369 1166.67 -104.299 1080.13 -54.2818C1036.25 -28.948 995.713 8.01192 954.803 30.4664C889.291 66.5708 836.426 55.5059 798.614 35.5633C760.918 15.5026 737.152 -23.1154 696.46 -55.1566C650.118 -91.8131 610.556 -150.564 539.717 -147.968C460.381 -145.131 367.674 -70.3339 307.124 14.685C246.575 99.704 217.382 200.42 180.084 278.578C152.433 336.528 105.476 383.187 58.0321 415.458C10.5879 447.73 -42.6177 466.931 -91.1418 461.515" stroke="#FAFAFA" stroke-miterlimit="10"/>
<path d="M1461.4 13.5446C1443.24 -55.7407 1392.03 -104.126 1320.82 -118.588C1249.6 -133.051 1159.06 -115.48 1073.58 -65.3449C1028.97 -39.1105 988.066 -0.881317 946.523 23.2706C882.289 60.6285 829.299 53.1495 790.447 36.8228C751.595 20.4962 722.321 -11.0059 684.091 -44.8045C639.651 -84.0003 597.812 -140.581 527.305 -139.977C448.915 -139.458 354.793 -66.9762 293.144 17.6598C231.495 102.296 202.637 203.572 168.273 281.595C143.583 337.581 99.9957 382.91 55.9433 415.032C11.8908 447.154 -38.7468 467.947 -86.3473 464.596" stroke="#FAFAFA" stroke-miterlimit="10"/>
<path d="M1453.14 -3.14052C1434.19 -70.8759 1382.66 -117.726 1311.89 -131.289C1241.12 -144.851 1151.33 -126.543 1066.99 -76.217C1021.56 -49.1557 980.303 -9.65727 938.127 16.192C874.979 54.8478 822.13 50.984 782.163 38.1996C742.271 25.4889 710.852 -2.3227 671.682 -34.2615C625.469 -71.951 584.911 -130.288 515.043 -131.84C437.483 -133.519 342.253 -63.5161 279.313 20.7813C216.374 105.079 188.043 206.871 156.654 284.568C134.807 338.708 94.8219 382.47 54.1613 414.442C13.5006 446.415 -34.4531 468.681 -81.2458 467.514" stroke="#FAFAFA" stroke-miterlimit="10"/>
<path d="M1444.92 -20.0165C1425.23 -86.3939 1373.44 -131.635 1302.96 -143.988C1232.48 -156.341 1143.55 -137.414 1060.4 -87.0882C1014.24 -59.1263 972.615 -18.3586 929.848 8.99621C867.943 48.6399 815.118 48.5096 774.07 39.533C733.022 30.5564 699.382 6.36139 659.272 -23.7175C611.096 -59.8564 572.01 -119.995 502.665 -123.583C426.051 -127.58 329.481 -59.819 265.326 24.2135C201.171 108.246 173.141 210.333 144.837 288.043C125.8 340.071 89.4101 382.724 52.0661 414.473C14.7221 446.222 -30.5886 470.155 -76.4576 471.053" stroke="#FAFAFA" stroke-miterlimit="10"/>
<path d="M1436.65 -36.7019C1416.18 -101.529 1364.19 -145.354 1294.03 -156.689C1223.88 -168.024 1135.9 -148.403 1053.89 -97.8867C1006.79 -68.9799 964.928 -27.061 921.527 1.99114C860.75 42.7409 807.95 46.3439 765.861 40.9832C723.698 35.5488 687.797 15.1624 646.863 -13.1747C596.914 -47.8074 559.184 -109.629 490.212 -115.401C414.544 -121.716 316.634 -56.1967 251.305 27.379C185.976 110.955 158.205 213.529 133.027 291.06C116.758 341.168 84.0455 382.328 49.9774 414.046C15.9093 445.763 -26.7175 471.17 -71.6628 474.134" stroke="#FAFAFA" stroke-miterlimit="10"/>
<path d="M1428.43 -53.5779C1407.1 -116.929 1354.9 -159.337 1285.15 -169.58C1215.4 -179.823 1128.17 -159.466 1047.45 -109.068C999.621 -79.2604 957.246 -36.2198 913.479 -5.44088C853.829 36.4149 801.129 43.825 757.809 42.1247C714.49 40.4244 676.368 23.6547 634.61 -2.94072C582.697 -36.0228 546.44 -99.6455 477.991 -107.455C403.153 -115.968 304.059 -53.0013 237.515 30.3095C170.971 113.62 143.31 216.534 121.332 293.959C107.682 342 78.6805 381.934 48.1201 413.383C17.4438 444.951 -22.4991 471.832 -66.7526 477.097" stroke="#FAFAFA" stroke-miterlimit="10"/>
<path d="M1420.28 -70.3805C1398.28 -132.3 1345.75 -173.173 1276.22 -182.28C1206.68 -191.387 1120.58 -170.381 1040.86 -119.939C992.293 -89.2313 949.599 -45.1132 905.083 -12.5188C846.601 30.2512 794.001 41.4684 749.525 43.5022C705.05 45.536 664.707 32.3828 622.126 7.52923C568.249 -24.0022 533.347 -89.3079 465.463 -99.3455C391.571 -110.176 291.137 -49.4518 223.493 33.476C155.775 116.33 128.107 219.701 109.597 297.051C98.5246 343.216 73.3909 381.612 46.1064 413.03C18.8219 444.449 -18.5532 472.922 -61.8829 480.252" stroke="#FAFAFA" stroke-miterlimit="10"/>
<path d="M1411.94 -87.1387C1389.09 -147.582 1336.42 -186.965 1267.29 -194.98C1198.16 -202.995 1112.81 -181.251 1034.27 -130.811C984.85 -99.084 941.761 -53.9622 896.687 -19.5967C839.258 24.2056 786.757 39.2299 741.242 44.8796C695.726 50.5294 652.93 41.2292 609.641 17.9992C553.76 -11.7898 520.371 -79.0885 453.01 -91.1629C379.948 -104.193 278.289 -45.8287 209.472 36.6424C140.538 119.232 112.789 222.986 97.6706 300.186C89.0256 344.328 67.9854 381.409 43.9017 412.722C19.9338 443.917 -14.6822 473.938 -57.129 483.525" stroke="#FAFAFA" stroke-miterlimit="10"/>
<path d="M1403.8 -103.941C1380.16 -162.835 1327.28 -200.801 1258.48 -207.798C1189.68 -214.795 1105.35 -192.285 1027.79 -141.8C977.638 -109.173 934.039 -62.9296 888.523 -26.9111C832.146 17.9235 779.82 36.8287 733.265 46.0944C686.593 55.4782 641.652 49.8684 597.464 28.3064C539.693 0.141763 507.702 -69.0319 440.789 -83.2166C368.673 -98.564 265.79 -42.5601 195.566 39.6905C125.342 121.941 97.3961 226.198 86.0513 303.159C79.9088 345.352 62.696 381.087 42.1199 412.133C21.5438 443.178 -10.5043 474.791 -52.0274 486.444" stroke="#FAFAFA" stroke-miterlimit="10"/>
<path d="M1395.65 -120.744C1371.15 -178.161 1318.14 -214.637 1249.55 -220.498C1180.96 -226.359 1097.58 -203.155 1021.32 -152.79C970.311 -119.144 926.357 -72.0885 880.319 -34.0333C825.034 11.6418 772.883 34.4278 725.172 47.4275C677.46 60.4273 630.066 58.6704 585.054 38.8502C525.204 12.3543 494.801 -58.7386 428.411 -74.96C357.125 -92.5066 252.943 -38.9367 181.62 42.9309C110.296 124.799 81.7708 229.645 74.3158 306.251C70.4096 346.464 57.406 380.766 40.1058 411.78C22.7305 442.72 -6.55852 475.881 -47.1579 489.599" stroke="#FAFAFA" stroke-miterlimit="10"/>
<path d="M1387.31 -137.503C1362.07 -193.562 1308.69 -228.311 1240.55 -233.272C1172.48 -238.159 1089.8 -214.027 1014.65 -163.736C962.908 -129.189 918.369 -81.0857 871.964 -41.3037C817.656 5.32993 765.756 32.0705 716.813 48.7306C667.87 65.3907 618.215 67.4423 572.495 49.2458C510.64 24.4923 481.709 -48.4017 415.807 -66.9255C345.352 -86.6713 239.945 -35.4617 167.523 46.0229C95.0256 127.434 65.8047 232.989 62.3146 309.312C60.604 347.739 51.8098 380.607 37.8262 411.397C23.8427 442.187 -2.76251 476.822 -42.5541 492.724" stroke="#FAFAFA" stroke-miterlimit="10"/>
<path d="M1379.16 -154.305C1353.06 -208.888 1299.48 -242.22 1231.74 -246.089C1163.88 -249.841 1082.22 -224.942 1008.17 -174.725C955.656 -139.086 910.496 -90.1999 863.684 -48.4994C810.278 -0.980867 758.628 29.7142 708.645 49.9903C658.662 70.2664 606.629 76.2447 560.201 59.6717C496.226 36.7789 468.924 -38.2263 403.545 -58.7868C333.92 -80.7318 227.289 -31.8825 153.692 49.1454C80.0957 130.173 49.8725 236.6 50.7703 312.359C51.2552 348.999 46.711 380.241 36.1193 410.882C25.5275 441.523 1.49023 477.75 -37.3776 495.717" stroke="#FAFAFA" stroke-miterlimit="10"/>
<path d="M1370.94 -171.181C1344.06 -224.215 1290.26 -256.13 1222.81 -258.789C1155.36 -261.449 1074.64 -235.857 1001.58 -185.597C948.328 -149.057 902.583 -99.1229 855.404 -55.6957C802.9 -7.29235 751.616 27.2392 700.477 51.2494C649.338 75.2595 594.928 85.1645 547.832 70.0233C481.853 48.873 455.948 -28.0072 391.133 -50.7962C322.339 -74.9405 214.599 -28.5695 139.712 52.1197C64.8246 132.809 33.4832 240.225 38.8846 315.303C41.4493 350.274 41.1551 379.89 33.9552 410.382C26.6801 440.799 5.28592 478.692 -32.6583 498.724" stroke="#FAFAFA" stroke-miterlimit="10"/>
<path d="M1362.68 -187.866C1335.01 -239.349 1281.01 -269.847 1213.88 -271.489C1146.76 -273.131 1067.02 -246.58 995.107 -196.586C941.076 -158.954 894.635 -108.311 847.199 -62.8178C795.597 -13.5296 744.563 24.9566 692.384 52.5827C640.205 80.2088 583.342 93.9666 535.539 80.4491C467.514 61.2331 443.162 -17.832 378.871 -42.6577C310.907 -69.0012 201.943 -24.9906 125.956 55.3157C49.8541 135.74 17.2787 244.264 27.4155 318.424C31.944 351.844 36.2068 379.672 32.2076 410.058C28.2084 440.444 9.68918 479.767 -27.5224 501.909" stroke="#FAFAFA" stroke-miterlimit="10"/>
<path d="M1354.45 -204.743C1326.05 -254.868 1271.79 -283.758 1205.07 -284.308C1138.35 -284.858 1059.44 -257.496 988.631 -207.576C933.939 -168.97 886.763 -117.427 838.919 -70.0147C788.103 -19.7236 737.511 22.6728 684.291 53.9149C630.956 85.2751 571.716 102.96 523.129 90.992C452.984 73.6365 430.221 -7.3479 366.493 -34.4022C299.359 -62.9448 189.095 -21.3683 111.894 58.6731C34.6926 138.714 0.535462 248.7 15.4484 321.75C21.9408 353.62 30.5696 379.704 30.0781 409.823C29.4707 440.059 13.5193 480.973 -22.7685 505.181" stroke="#FAFAFA" stroke-miterlimit="10"/>
<path d="M1346.31 -221.544C1317.12 -270.12 1262.65 -297.593 1196.14 -297.007C1129.75 -296.539 1051.86 -268.41 982.04 -218.447C926.571 -178.748 878.699 -126.496 830.639 -77.2097C780.725 -26.0337 730.498 20.1991 676.007 55.2933C621.632 90.2695 560.014 111.881 510.645 101.463C438.338 86.16 417.128 2.99071 353.965 -26.2921C287.661 -57.034 176.289 -17.9359 97.7971 61.7668C19.3055 141.47 -16.3175 252.799 3.67852 324.577C12.1347 354.896 25.2453 379.119 28.0297 409.205C30.8141 439.292 17.5466 481.681 -18.0493 508.19" stroke="#FAFAFA" stroke-miterlimit="10"/>
<path d="M1337.97 -238.303C1307.92 -285.403 1253.24 -311.459 1187.14 -309.781C1121.04 -308.103 1044.16 -279.208 975.373 -229.393C919.244 -188.719 870.444 -135.522 822.168 -84.3622C772.965 -32.2569 723.255 17.9598 667.649 56.5963C612.042 95.2328 548.122 120.844 498.085 111.858C423.734 98.4897 403.961 13.2537 341.437 -18.184C275.847 -51.0069 163.367 -14.3872 83.7006 64.8588C4.03453 144.105 -33.4835 257.516 -8.36358 327.83C2.01564 356.791 19.6081 379.151 25.7092 409.014C31.8102 438.877 21.1858 482.932 -13.4864 511.507" stroke="#FAFAFA" stroke-miterlimit="10"/>
<path d="M1329.82 -255.106C1299.11 -300.774 1243.99 -325.177 1178.33 -322.599C1112.55 -319.903 1036.65 -290.049 969.014 -240.501C912.107 -198.735 862.612 -144.829 814.195 -91.721C765.778 -38.6128 716.434 15.4405 659.787 57.6929C603.141 99.9453 536.802 129.675 486.023 122.048C409.511 110.731 391.408 23.1923 329.332 -10.3558C264.688 -45.4961 150.867 -11.1186 70.1017 67.7444C-10.6636 146.607 -50.1517 262.027 -19.7514 330.567C-7.48984 358.361 14.666 378.475 24.1588 408.189C33.6516 437.902 25.5952 483.549 -8.15332 514.189" stroke="#FAFAFA" stroke-miterlimit="10"/>
</svg>
